<?xml version="1.0" encoding="utf-8"?>
<!-- Generator: Adobe Illustrator 27.5.0, SVG Export Plug-In . SVG Version: 6.00 Build 0)  -->
<svg version="1.1" xmlns="http://www.w3.org/2000/svg" xmlns:xlink="http://www.w3.org/1999/xlink" x="0px" y="0px"
	 viewBox="0 0 3710 3710" style="enable-background:new 0 0 3710 3710;" xml:space="preserve">
<g id="Background">
	<g>
		<g>
			<rect style="fill:#FFFFFF;" width="3710" height="3710"/>
		</g>
	</g>
</g>
<g id="Illustration">
	<g>
		<linearGradient id="SVGID_1_" gradientUnits="userSpaceOnUse" x1="3493.7795" y1="3305.3386" x2="1393.3812" y2="1467.4915">
			<stop  offset="0" style="stop-color:#B37CFF"/>
			<stop  offset="1" style="stop-color:#F895E7"/>
		</linearGradient>
		<path style="opacity:0.3;fill:url(#SVGID_1_);" d="M3144.853,2346.625c-273.188,633.674-1000.898,988.662-1631.97,892.906
			c-102.688-15.582-384.21-61.997-633.459-280.967C399.603,2537.03,296.989,1702.338,684.047,1114.111
			c281.71-428.126,786.703-670.816,1266.546-658.677c103.358,2.615,499.469,18.73,847.583,301.504
			c51.131,41.534,163.906,140.23,265.542,296.805C3302.379,1421.411,3322.893,1933.652,3144.853,2346.625z"/>
		<g>
			<g>
				
					<linearGradient id="SVGID_00000088834970452078095920000012227941179413337481_" gradientUnits="userSpaceOnUse" x1="475.2148" y1="581.4083" x2="1359.5471" y2="1661.5089">
					<stop  offset="0" style="stop-color:#CB236D"/>
					<stop  offset="1" style="stop-color:#4C246D"/>
				</linearGradient>
				<path style="fill:url(#SVGID_00000088834970452078095920000012227941179413337481_);" d="M1196.467,2136.929
					c0,0,8.31-349.391-152.616-442.903c-160.925-93.513-466.902-151.977-478.371-653.669
					c-6.715-293.713-13.982-422.129-18.854-478.124c-1.9-21.843,17.51-39.474,39.056-35.415
					c152.41,28.712,647.525,146.89,751.33,484.828C1460.073,1412.275,1196.467,2136.929,1196.467,2136.929z"/>
				
					<linearGradient id="SVGID_00000044172832565527671050000001871657270905703336_" gradientUnits="userSpaceOnUse" x1="-1798.2764" y1="954.9495" x2="-4944.4077" y2="3204.2537" gradientTransform="matrix(-1 0 0 1 -1392.0802 0)">
					<stop  offset="0" style="stop-color:#CB236D"/>
					<stop  offset="1" style="stop-color:#4C246D"/>
				</linearGradient>
				<path style="fill:url(#SVGID_00000044172832565527671050000001871657270905703336_);" d="M703.552,666.403
					c167.301,149.209,360.753,413.277,463.865,677.346c13.236,43.52,51.951,136.071,68.764,300.508
					c15.016,137.144,7.551,282.063-10.657,377.993c-1.151,6.065-7.001,10.048-13.065,8.896c-10.428-1.978-9.041-13.194-8.947-12.841
					c20.795-163.898,12.163-367.896-35.486-551.962c-60.876-226.011-196.653-445.137-337.09-630.987l-14.452-18.301
					C707.679,677.325,684.773,676.295,694.945,666.555C697.347,664.255,701.107,664.234,703.552,666.403z"/>
			</g>
			<g>
				
					<linearGradient id="SVGID_00000052096571309867328010000002314392101110390152_" gradientUnits="userSpaceOnUse" x1="952.6623" y1="2200.4255" x2="1006.668" y2="1349.8472">
					<stop  offset="0" style="stop-color:#A737D5"/>
					<stop  offset="1" style="stop-color:#EF497A"/>
				</linearGradient>
				<path style="fill:url(#SVGID_00000052096571309867328010000002314392101110390152_);" d="M1455.081,2808.68
					c21.773,10.676-206.122-275.903-277.51-725.996c-33.64-212.096-34.079-477.833-154.898-580.239
					c-100.554-85.229-442.725-31.421-554.683-10.972c-13.99,2.555-18.7,20.227-7.81,29.374
					c53.69,45.09,168.544,151.448,198.469,258.637c39.445,141.283,173.765,231.146,294.016,255.466
					c120.251,24.32,187.144,47.922,245.726,240.229C1256.974,2467.486,1393.216,2778.345,1455.081,2808.68z"/>
				
					<linearGradient id="SVGID_00000009548827500847424980000012582473768520880512_" gradientUnits="userSpaceOnUse" x1="-2073.8303" y1="1618.708" x2="-3860.2539" y2="3007.344" gradientTransform="matrix(-1 0 0 1 -1392.0802 0)">
					<stop  offset="0" style="stop-color:#CB236D"/>
					<stop  offset="1" style="stop-color:#4C246D"/>
				</linearGradient>
				<path style="fill:url(#SVGID_00000009548827500847424980000012582473768520880512_);" d="M625.453,1551.167
					c142.842,5.983,296.171,71.142,373.98,193.368l7.344,11.663c16.962,27.348,113.093,221.758,166.484,382.914
					c0.665,2.009-0.424,4.177-2.433,4.843c-3.413,1.13-5.122-2.625-4.796-2.293c-37.198-91.041-90.625-206.467-133.176-292.782
					c-45.632-94.188-77.566-157.976-181.65-219.075c-115.849-65.801-226.526-72.574-226.194-72.506
					c-1.689-0.172-2.919-1.682-2.746-3.371C622.432,1552.303,623.843,1551.104,625.453,1551.167z"/>
			</g>
		</g>
		<g>
			
				<linearGradient id="SVGID_00000069376449847325865710000006667954650970296742_" gradientUnits="userSpaceOnUse" x1="2811.564" y1="995.2339" x2="506.066" y2="3452.7454">
				<stop  offset="0" style="stop-color:#53D8FF"/>
				<stop  offset="1" style="stop-color:#3840F7"/>
			</linearGradient>
			<path style="fill:url(#SVGID_00000069376449847325865710000006667954650970296742_);" d="M2983.927,3145.637H1126.322
				c-60.463,0-109.808-49.521-110.998-111.393L968.974,622.73c-1.204-62.648,47.369-114.469,108.575-115.836l1903.956-42.531
				c62.247-1.39,113.442,49.876,113.442,113.601v2454.045C3094.947,3094.764,3045.242,3145.637,2983.927,3145.637z"/>
			<path style="opacity:0.8;fill:#FFFFFF;" d="M2948.467,3027.407H1147.055c-10.938,0-19.804-8.866-19.804-19.804V821.941
				c0-10.938,8.867-19.804,19.804-19.804h1801.412c10.938,0,19.804,8.867,19.804,19.804v2185.662
				C2968.271,3018.54,2959.404,3027.407,2948.467,3027.407z"/>
			<g>
				<rect x="1878.86" y="899.255" style="fill:#FFFFFF;" width="1017.628" height="80.228"/>
				<rect x="1878.86" y="1013.263" style="fill:#FFFFFF;" width="1017.628" height="46.447"/>
				<rect x="1878.86" y="1093.491" style="fill:#FFFFFF;" width="1017.628" height="46.448"/>
				<rect x="1878.86" y="1173.719" style="fill:#FFFFFF;" width="1017.628" height="46.448"/>
			</g>
			<g>
				<rect x="1258.149" y="1904.216" style="fill:#FFFFFF;" width="582.708" height="80.228"/>
				<rect x="1258.149" y="2018.224" style="fill:#FFFFFF;" width="582.708" height="46.448"/>
				<rect x="1258.149" y="2098.452" style="fill:#FFFFFF;" width="582.708" height="46.448"/>
				<rect x="1258.149" y="2178.679" style="fill:#FFFFFF;" width="582.708" height="46.448"/>
			</g>
			<g>
				
					<linearGradient id="SVGID_00000150785024953368154740000017801160741621279398_" gradientUnits="userSpaceOnUse" x1="1789.4601" y1="1951.3599" x2="2039.6902" y2="-408.9311">
					<stop  offset="0" style="stop-color:#53D8FF"/>
					<stop  offset="1" style="stop-color:#3840F7"/>
				</linearGradient>
				
					<rect x="1795.896" y="1501.875" style="fill:url(#SVGID_00000150785024953368154740000017801160741621279398_);" width="56.79" height="241.885"/>
				
					<linearGradient id="SVGID_00000029006736076296661480000003064199435584957080_" gradientUnits="userSpaceOnUse" x1="1887.7106" y1="1961.2363" x2="2138.1731" y2="-401.2476">
					<stop  offset="0" style="stop-color:#53D8FF"/>
					<stop  offset="1" style="stop-color:#3840F7"/>
				</linearGradient>
				
					<rect x="1890.787" y="1585.007" style="fill:url(#SVGID_00000029006736076296661480000003064199435584957080_);" width="56.79" height="158.753"/>
				
					<linearGradient id="SVGID_00000177455013612410420310000006024806633096971707_" gradientUnits="userSpaceOnUse" x1="1970.8906" y1="1968.9746" x2="2220.9692" y2="-389.8865">
					<stop  offset="0" style="stop-color:#53D8FF"/>
					<stop  offset="1" style="stop-color:#3840F7"/>
				</linearGradient>
				
					<rect x="1985.678" y="1379.552" style="fill:url(#SVGID_00000177455013612410420310000006024806633096971707_);" width="56.79" height="364.208"/>
				
					<linearGradient id="SVGID_00000159448712378902417530000018271044863369576333_" gradientUnits="userSpaceOnUse" x1="2079.22" y1="1980.5735" x2="2330.21" y2="-386.8865">
					<stop  offset="0" style="stop-color:#53D8FF"/>
					<stop  offset="1" style="stop-color:#3840F7"/>
				</linearGradient>
				
					<rect x="2080.569" y="1656.263" style="fill:url(#SVGID_00000159448712378902417530000018271044863369576333_);" width="56.79" height="87.496"/>
				
					<linearGradient id="SVGID_00000010311917359780293800000017015777293355176078_" gradientUnits="userSpaceOnUse" x1="2161.2676" y1="1987.7096" x2="2411.3926" y2="-371.5903">
					<stop  offset="0" style="stop-color:#53D8FF"/>
					<stop  offset="1" style="stop-color:#3840F7"/>
				</linearGradient>
				
					<rect x="2175.46" y="1428.243" style="fill:url(#SVGID_00000010311917359780293800000017015777293355176078_);" width="56.79" height="315.516"/>
				
					<linearGradient id="SVGID_00000010269253209215206370000003820679320786161581_" gradientUnits="userSpaceOnUse" x1="2258.0378" y1="1997.2975" x2="2508.2354" y2="-362.6849">
					<stop  offset="0" style="stop-color:#53D8FF"/>
					<stop  offset="1" style="stop-color:#3840F7"/>
				</linearGradient>
				
					<rect x="2270.351" y="1482.873" style="fill:url(#SVGID_00000010269253209215206370000003820679320786161581_);" width="56.791" height="260.887"/>
				
					<linearGradient id="SVGID_00000081608265905957862890000018221921374575313802_" gradientUnits="userSpaceOnUse" x1="2355.0513" y1="2006.9695" x2="2605.3699" y2="-354.1567">
					<stop  offset="0" style="stop-color:#53D8FF"/>
					<stop  offset="1" style="stop-color:#3840F7"/>
				</linearGradient>
				
					<rect x="2365.242" y="1542.253" style="fill:url(#SVGID_00000081608265905957862890000018221921374575313802_);" width="56.79" height="201.507"/>
				
					<linearGradient id="SVGID_00000157290563933311316070000013813153039945907619_" gradientUnits="userSpaceOnUse" x1="2436.6101" y1="2014.5585" x2="2686.6377" y2="-343.8213">
					<stop  offset="0" style="stop-color:#53D8FF"/>
					<stop  offset="1" style="stop-color:#3840F7"/>
				</linearGradient>
				
					<rect x="2460.134" y="1305.92" style="fill:url(#SVGID_00000157290563933311316070000013813153039945907619_);" width="56.79" height="437.839"/>
				
					<linearGradient id="SVGID_00000020399374856084171710000000492159726930512019_" gradientUnits="userSpaceOnUse" x1="2532.9497" y1="2024.057" x2="2783.0164" y2="-334.6938">
					<stop  offset="0" style="stop-color:#53D8FF"/>
					<stop  offset="1" style="stop-color:#3840F7"/>
				</linearGradient>
				
					<rect x="2555.025" y="1352.237" style="fill:url(#SVGID_00000020399374856084171710000000492159726930512019_);" width="56.79" height="391.523"/>
				
					<linearGradient id="SVGID_00000036965579173731795440000004885977598747147165_" gradientUnits="userSpaceOnUse" x1="2630.5295" y1="2033.726" x2="2880.6482" y2="-325.5134">
					<stop  offset="0" style="stop-color:#53D8FF"/>
					<stop  offset="1" style="stop-color:#3840F7"/>
				</linearGradient>
				
					<rect x="2649.916" y="1422.306" style="fill:url(#SVGID_00000036965579173731795440000004885977598747147165_);" width="56.79" height="321.454"/>
				
					<linearGradient id="SVGID_00000100363743973997379660000015617050981446253189_" gradientUnits="userSpaceOnUse" x1="2737.009" y1="2045.4595" x2="2988.1157" y2="-323.0995">
					<stop  offset="0" style="stop-color:#53D8FF"/>
					<stop  offset="1" style="stop-color:#3840F7"/>
				</linearGradient>
				
					<rect x="2744.807" y="1664.383" style="fill:url(#SVGID_00000100363743973997379660000015617050981446253189_);" width="56.79" height="79.376"/>
				
					<linearGradient id="SVGID_00000114781885133349147350000008633207001698739607_" gradientUnits="userSpaceOnUse" x1="2822.9492" y1="2052.7932" x2="3073.1951" y2="-307.6474">
					<stop  offset="0" style="stop-color:#53D8FF"/>
					<stop  offset="1" style="stop-color:#3840F7"/>
				</linearGradient>
				
					<rect x="2839.698" y="1510.188" style="fill:url(#SVGID_00000114781885133349147350000008633207001698739607_);" width="56.79" height="233.572"/>
			</g>
			<rect x="1258.149" y="2879.618" style="fill:#FFFFFF;" width="1638.339" height="46.448"/>
			
				<linearGradient id="SVGID_00000118394034931707655410000001051394148393937285_" gradientUnits="userSpaceOnUse" x1="1997.6749" y1="642.83" x2="-332.8585" y2="3761.2375">
				<stop  offset="0" style="stop-color:#53D8FF"/>
				<stop  offset="1" style="stop-color:#3840F7"/>
			</linearGradient>
			<path style="fill:url(#SVGID_00000118394034931707655410000001051394148393937285_);" d="M1703.239,1743.76h-425.543
				c-10.795,0-19.547-8.751-19.547-19.547V918.802c0-10.795,8.751-19.547,19.547-19.547h425.543
				c10.795,0,19.547,8.751,19.547,19.547v805.411C1722.786,1735.008,1714.034,1743.76,1703.239,1743.76z"/>
			<path style="opacity:0.57;fill:#FFFFFF;" d="M1823.857,2807.835h-544.486c-9.389,0-17-7.611-17-17v-464.258
				c0-9.389,7.611-17,17-17h544.486c9.389,0,17,7.611,17,17v464.258C1840.857,2800.224,1833.246,2807.835,1823.857,2807.835z"/>
			<g style="opacity:0.76;">
				
					<linearGradient id="SVGID_00000088112817559957111560000015359830409359661721_" gradientUnits="userSpaceOnUse" x1="2246.2246" y1="2475.3171" x2="3724.1077" y2="1124.1111">
					<stop  offset="0" style="stop-color:#53D8FF"/>
					<stop  offset="1" style="stop-color:#3840F7"/>
				</linearGradient>
				<path style="fill:url(#SVGID_00000088112817559957111560000015359830409359661721_);" d="M2419.047,2353.516
					c-6.464,0-12.711-2.613-17.27-7.329c-5.363-5.552-7.73-13.347-6.357-20.947l72.454-401.287
					c1.136-6.293,4.74-11.877,10.008-15.505c5.269-3.627,11.767-4.997,18.057-3.824c181.823,34.19,322.727,179.967,350.61,362.744
					c0.965,6.323-0.636,12.775-4.444,17.916c-3.808,5.141-9.512,8.547-15.846,9.466l-403.769,58.517
					C2421.342,2353.436,2420.189,2353.516,2419.047,2353.516z"/>
				
					<linearGradient id="SVGID_00000126298699870232765650000001877553870274112695_" gradientUnits="userSpaceOnUse" x1="2583.3718" y1="1558.9407" x2="1591.0298" y2="4799.2432">
					<stop  offset="0" style="stop-color:#53D8FF"/>
					<stop  offset="1" style="stop-color:#3840F7"/>
				</linearGradient>
				<path style="fill:url(#SVGID_00000126298699870232765650000001877553870274112695_);" d="M2312.723,2799.39
					c-196.684,0-356.699-160.015-356.699-356.699s160.015-356.699,356.699-356.699c21.959,0,44.256,2.1,66.268,6.243
					c12.962,2.438,21.531,14.878,19.185,27.861l-52.471,290.622l292.441-42.384c13.016-1.866,25.184,7.101,27.177,20.137
					c2.719,17.822,4.099,36.063,4.099,54.22C2669.423,2639.375,2509.408,2799.39,2312.723,2799.39z"/>
			</g>
		</g>
		<g>
			<g>
				<g>
					
						<linearGradient id="SVGID_00000076583029891326674920000015730636198209649820_" gradientUnits="userSpaceOnUse" x1="818.9885" y1="2528.7505" x2="2002.561" y2="2528.7505">
						<stop  offset="0" style="stop-color:#2B3582"/>
						<stop  offset="1" style="stop-color:#150E42"/>
					</linearGradient>
					<path style="fill:url(#SVGID_00000076583029891326674920000015730636198209649820_);" d="M838.349,1901.57
						c-6.232,222.541-26.441,990.166-16.794,1262.189c1.022,28.818,27.116,51.949,59.667,52.892
						c160.99,4.664,751.172,16.486,1014.498,6.705c54.847-2.038,98.464-41.369,99.601-89.96
						c5.473-233.585,17.545-890.57-11.15-1191.534c-3.439-36.06-35.407-64.776-76.08-68.379
						c-175.326-15.528-768.046-53.485-995.544-40.415C871.518,1835.426,839.367,1865.18,838.349,1901.57z"/>
					
						<linearGradient id="SVGID_00000026842770378792445940000015918846299505115020_" gradientUnits="userSpaceOnUse" x1="1323.0862" y1="2415.3049" x2="1433.4146" y2="1957.9772">
						<stop  offset="0" style="stop-color:#A737D5"/>
						<stop  offset="1" style="stop-color:#EF497A"/>
					</linearGradient>
					<path style="fill:url(#SVGID_00000026842770378792445940000015918846299505115020_);" d="M884.587,1999.688v188.594
						c0,36.166,29.318,65.485,65.484,65.485h901.064c36.166,0,65.484-29.318,65.484-65.485v-188.594
						c0-36.166-29.318-65.484-65.484-65.484H950.071C913.905,1934.204,884.587,1963.523,884.587,1999.688z"/>
					<path style="opacity:0.2;fill:#FFFFFF;" d="M1870.66,1998.607c-7.966-8.237-18.881-12.968-30.339-13.149l-843.14-13.396
						c-22.541-0.359-41.559,16.689-43.661,39.133l-17.519,187.054c-1.435,15.316,23.762,28.211,55.886,28.602l828.923,10.044
						c32.075,0.388,58.591-11.844,58.856-27.153l3.126-180.377C1882.991,2017.908,1878.626,2006.841,1870.66,1998.607z"/>
				</g>
				
					<linearGradient id="SVGID_00000034776880695253842310000006891815025044580287_" gradientUnits="userSpaceOnUse" x1="714.2489" y1="2732.5374" x2="1507.8837" y2="1968.48">
					<stop  offset="0" style="stop-color:#53D8FF"/>
					<stop  offset="1" style="stop-color:#3840F7"/>
				</linearGradient>
				<path style="opacity:0.63;fill:url(#SVGID_00000034776880695253842310000006891815025044580287_);" d="M1109.853,2444.981
					c0,33.273-26.973,60.246-60.245,60.246h-73.342c-33.273,0-60.245-26.973-60.245-60.246l0,0
					c0-33.272,26.973-60.246,60.245-60.246h73.342C1082.88,2384.736,1109.853,2411.709,1109.853,2444.981L1109.853,2444.981z"/>
				
					<linearGradient id="SVGID_00000182490223450833052020000006458196254243138228_" gradientUnits="userSpaceOnUse" x1="845.2855" y1="2868.6462" x2="1638.9202" y2="2104.5889">
					<stop  offset="0" style="stop-color:#53D8FF"/>
					<stop  offset="1" style="stop-color:#3840F7"/>
				</linearGradient>
				<path style="opacity:0.63;fill:url(#SVGID_00000182490223450833052020000006458196254243138228_);" d="M1382.267,2444.981
					c0,33.273-26.973,60.246-60.245,60.246h-73.342c-33.273,0-60.245-26.973-60.245-60.246l0,0
					c0-33.272,26.973-60.246,60.245-60.246h73.342C1355.295,2384.736,1382.267,2411.709,1382.267,2444.981L1382.267,2444.981z"/>
				
					<linearGradient id="SVGID_00000065775271881695056620000007141989498432365964_" gradientUnits="userSpaceOnUse" x1="971.2812" y1="2999.5215" x2="1764.9163" y2="2235.4639">
					<stop  offset="0" style="stop-color:#53D8FF"/>
					<stop  offset="1" style="stop-color:#3840F7"/>
				</linearGradient>
				<path style="opacity:0.63;fill:url(#SVGID_00000065775271881695056620000007141989498432365964_);" d="M1644.205,2444.981
					c0,33.273-26.973,60.246-60.246,60.246h-73.342c-33.273,0-60.245-26.973-60.245-60.246l0,0
					c0-33.272,26.973-60.246,60.245-60.246h73.342C1617.232,2384.736,1644.205,2411.709,1644.205,2444.981L1644.205,2444.981z"/>
				
					<linearGradient id="SVGID_00000175321673323582570310000014712397871371075262_" gradientUnits="userSpaceOnUse" x1="1872.8807" y1="2383.2961" x2="1441.1104" y2="2892.3989">
					<stop  offset="0" style="stop-color:#E40045"/>
					<stop  offset="1" style="stop-color:#5C0E16"/>
				</linearGradient>
				<path style="fill:url(#SVGID_00000175321673323582570310000014712397871371075262_);" d="M1909.73,2453.826
					c0,33.812-27.41,61.221-61.221,61.221h-70.887c-33.812,0-61.222-27.41-61.222-61.221l0,0c0-33.812,27.41-61.221,61.222-61.221
					h70.887C1882.32,2392.604,1909.73,2420.014,1909.73,2453.826L1909.73,2453.826z"/>
				
					<linearGradient id="SVGID_00000029736024934810195090000017958687785631947177_" gradientUnits="userSpaceOnUse" x1="808.4776" y1="2830.415" x2="1602.1119" y2="2066.3582">
					<stop  offset="0" style="stop-color:#53D8FF"/>
					<stop  offset="1" style="stop-color:#3840F7"/>
				</linearGradient>
				<path style="opacity:0.63;fill:url(#SVGID_00000029736024934810195090000017958687785631947177_);" d="M1109.853,2633.576
					c0,33.273-26.973,60.245-60.245,60.245h-73.342c-33.273,0-60.245-26.972-60.245-60.245l0,0
					c0-33.273,26.973-60.246,60.245-60.246h73.342C1082.88,2573.331,1109.853,2600.303,1109.853,2633.576L1109.853,2633.576z"/>
				
					<linearGradient id="SVGID_00000152257771637714472090000011105709223338187427_" gradientUnits="userSpaceOnUse" x1="939.5143" y1="2966.5239" x2="1733.1486" y2="2202.467">
					<stop  offset="0" style="stop-color:#53D8FF"/>
					<stop  offset="1" style="stop-color:#3840F7"/>
				</linearGradient>
				<path style="opacity:0.63;fill:url(#SVGID_00000152257771637714472090000011105709223338187427_);" d="M1382.267,2633.576
					c0,33.273-26.973,60.245-60.245,60.245h-73.342c-33.273,0-60.245-26.972-60.245-60.245l0,0
					c0-33.273,26.973-60.246,60.245-60.246h73.342C1355.295,2573.331,1382.267,2600.303,1382.267,2633.576L1382.267,2633.576z"/>
				
					<linearGradient id="SVGID_00000072269094532422276500000018098563288157849769_" gradientUnits="userSpaceOnUse" x1="1065.5114" y1="3097.3977" x2="1859.146" y2="2333.3406">
					<stop  offset="0" style="stop-color:#53D8FF"/>
					<stop  offset="1" style="stop-color:#3840F7"/>
				</linearGradient>
				<path style="opacity:0.63;fill:url(#SVGID_00000072269094532422276500000018098563288157849769_);" d="M1644.205,2633.576
					c0,33.273-26.973,60.245-60.246,60.245h-73.342c-33.273,0-60.245-26.972-60.245-60.245l0,0
					c0-33.273,26.973-60.246,60.245-60.246h73.342C1617.232,2573.331,1644.205,2600.303,1644.205,2633.576L1644.205,2633.576z"/>
				
					<linearGradient id="SVGID_00000002382243429885852680000001012429938035891612_" gradientUnits="userSpaceOnUse" x1="1196.5482" y1="3233.5063" x2="1990.1825" y2="2469.4495">
					<stop  offset="0" style="stop-color:#53D8FF"/>
					<stop  offset="1" style="stop-color:#3840F7"/>
				</linearGradient>
				<path style="fill:url(#SVGID_00000002382243429885852680000001012429938035891612_);" d="M1916.619,2633.576
					c0,33.273-26.973,60.245-60.245,60.245h-73.342c-33.273,0-60.245-26.972-60.245-60.245l0,0
					c0-33.273,26.973-60.246,60.245-60.246h73.342C1889.646,2573.331,1916.619,2600.303,1916.619,2633.576L1916.619,2633.576z"/>
				<g>
					
						<linearGradient id="SVGID_00000134934186280417743590000012756361473750193833_" gradientUnits="userSpaceOnUse" x1="891.9305" y1="2917.0981" x2="1685.5654" y2="2153.0408">
						<stop  offset="0" style="stop-color:#53D8FF"/>
						<stop  offset="1" style="stop-color:#3840F7"/>
					</linearGradient>
					<path style="opacity:0.63;fill:url(#SVGID_00000134934186280417743590000012756361473750193833_);" d="M1109.853,2800.602
						c0,33.273-26.973,60.246-60.245,60.246h-73.342c-33.273,0-60.245-26.973-60.245-60.246l0,0
						c0-33.272,26.973-60.245,60.245-60.245h73.342C1082.88,2740.357,1109.853,2767.33,1109.853,2800.602L1109.853,2800.602z"/>
					
						<linearGradient id="SVGID_00000178907530461638211470000010128762210503764150_" gradientUnits="userSpaceOnUse" x1="1022.9667" y1="3053.2075" x2="1816.6016" y2="2289.1501">
						<stop  offset="0" style="stop-color:#53D8FF"/>
						<stop  offset="1" style="stop-color:#3840F7"/>
					</linearGradient>
					<path style="opacity:0.63;fill:url(#SVGID_00000178907530461638211470000010128762210503764150_);" d="M1382.267,2800.602
						c0,33.273-26.973,60.246-60.245,60.246h-73.342c-33.273,0-60.245-26.973-60.245-60.246l0,0
						c0-33.272,26.973-60.245,60.245-60.245h73.342C1355.295,2740.357,1382.267,2767.33,1382.267,2800.602L1382.267,2800.602z"/>
					
						<linearGradient id="SVGID_00000026860138040328311000000017520609339215441327_" gradientUnits="userSpaceOnUse" x1="1148.9637" y1="3184.0815" x2="1942.5989" y2="2420.0237">
						<stop  offset="0" style="stop-color:#53D8FF"/>
						<stop  offset="1" style="stop-color:#3840F7"/>
					</linearGradient>
					<path style="opacity:0.63;fill:url(#SVGID_00000026860138040328311000000017520609339215441327_);" d="M1644.205,2800.602
						c0,33.273-26.973,60.246-60.246,60.246h-73.342c-33.273,0-60.245-26.973-60.245-60.246l0,0
						c0-33.272,26.973-60.245,60.245-60.245h73.342C1617.232,2740.357,1644.205,2767.33,1644.205,2800.602L1644.205,2800.602z"/>
				</g>
				<g>
					
						<linearGradient id="SVGID_00000168112941663690356620000014255123027998443172_" gradientUnits="userSpaceOnUse" x1="983.5426" y1="3012.2563" x2="1777.1775" y2="2248.199">
						<stop  offset="0" style="stop-color:#53D8FF"/>
						<stop  offset="1" style="stop-color:#3840F7"/>
					</linearGradient>
					<path style="opacity:0.63;fill:url(#SVGID_00000168112941663690356620000014255123027998443172_);" d="M1109.853,2983.958
						c0,33.273-26.973,60.245-60.245,60.245h-73.342c-33.273,0-60.245-26.972-60.245-60.245l0,0
						c0-33.273,26.973-60.246,60.245-60.246h73.342C1082.88,2923.713,1109.853,2950.686,1109.853,2983.958L1109.853,2983.958z"/>
					
						<linearGradient id="SVGID_00000057138724964910296920000006719061246384158113_" gradientUnits="userSpaceOnUse" x1="1114.579" y1="3148.3655" x2="1908.2139" y2="2384.3081">
						<stop  offset="0" style="stop-color:#53D8FF"/>
						<stop  offset="1" style="stop-color:#3840F7"/>
					</linearGradient>
					<path style="opacity:0.63;fill:url(#SVGID_00000057138724964910296920000006719061246384158113_);" d="M1382.267,2983.958
						c0,33.273-26.973,60.245-60.245,60.245h-73.342c-33.273,0-60.245-26.972-60.245-60.245l0,0
						c0-33.273,26.973-60.246,60.245-60.246h73.342C1355.295,2923.713,1382.267,2950.686,1382.267,2983.958L1382.267,2983.958z"/>
					
						<linearGradient id="SVGID_00000103235411051707960870000015055816101844648348_" gradientUnits="userSpaceOnUse" x1="1240.5752" y1="3279.2402" x2="2034.2104" y2="2515.1824">
						<stop  offset="0" style="stop-color:#53D8FF"/>
						<stop  offset="1" style="stop-color:#3840F7"/>
					</linearGradient>
					<path style="opacity:0.63;fill:url(#SVGID_00000103235411051707960870000015055816101844648348_);" d="M1644.205,2983.958
						c0,33.273-26.973,60.245-60.246,60.245h-73.342c-33.273,0-60.245-26.972-60.245-60.245l0,0
						c0-33.273,26.973-60.246,60.245-60.246h73.342C1617.232,2923.713,1644.205,2950.686,1644.205,2983.958L1644.205,2983.958z"/>
				</g>
				
					<linearGradient id="SVGID_00000050661144684712224030000009072707857763774880_" gradientUnits="userSpaceOnUse" x1="1728.5419" y1="3027.0149" x2="1989.8007" y2="2647.4504">
					<stop  offset="0" style="stop-color:#53D8FF"/>
					<stop  offset="1" style="stop-color:#3840F7"/>
				</linearGradient>
				<path style="fill:url(#SVGID_00000050661144684712224030000009072707857763774880_);" d="M1890.425,2979.037
					c0,42.116-34.142,76.258-76.257,76.258h-4.647c-42.116,0-76.258-34.142-76.258-76.258v-146.093
					c0-42.116,34.142-76.258,76.258-76.258h4.647c42.116,0,76.257,34.142,76.257,76.258V2979.037z"/>
			</g>
		</g>
		<g>
			<g>
				<g>
					
						<linearGradient id="SVGID_00000165940013917509592320000003421951544323625908_" gradientUnits="userSpaceOnUse" x1="2759.6494" y1="2182.5034" x2="2639.353" y2="2452.2307">
						<stop  offset="0" style="stop-color:#CB236D"/>
						<stop  offset="1" style="stop-color:#4C246D"/>
					</linearGradient>
					<path style="fill:url(#SVGID_00000165940013917509592320000003421951544323625908_);" d="M2574.997,2436.397
						c24.903,2.152,68.122,5.65,102.194,7.149c20.482,0.901,32.273-1.104,39.064-3.823c-0.011,0.766-0.033,1.489-0.063,2.161
						c-0.161,3.585-3.075,6.454-6.696,6.656c-64.382,3.593-115.583,1.244-133.812,0.134c-3.769-0.23-6.015-4.326-4.088-7.539
						C2572.561,2439.529,2573.729,2437.955,2574.997,2436.397z"/>
					
						<linearGradient id="SVGID_00000073679464882720148720000005429766645294113459_" gradientUnits="userSpaceOnUse" x1="-3518.0527" y1="2414.9395" x2="-3376.7866" y2="2414.9395" gradientTransform="matrix(-1 0 0 1 -801.7894 0)">
						<stop  offset="0" style="stop-color:#2B3582"/>
						<stop  offset="1" style="stop-color:#150E42"/>
					</linearGradient>
					<path style="fill:url(#SVGID_00000073679464882720148720000005429766645294113459_);" d="M2677.191,2443.547
						c-34.072-1.5-77.291-4.997-102.194-7.149c24.483-30.038,102.194-50.284,102.194-50.284h21.948
						c15.095,21.76,17.281,42.477,17.115,53.609C2709.465,2442.443,2697.673,2444.448,2677.191,2443.547z"/>
					
						<linearGradient id="SVGID_00000115501787176016567950000005019703769904769718_" gradientUnits="userSpaceOnUse" x1="-3504.6245" y1="2375.1643" x2="-3463.6785" y2="2375.1643" gradientTransform="matrix(-1 0 0 1 -801.7894 0)">
						<stop  offset="0" style="stop-color:#F9B776"/>
						<stop  offset="1" style="stop-color:#F47960"/>
					</linearGradient>
					<path style="fill:url(#SVGID_00000115501787176016567950000005019703769904769718_);" d="M2702.835,2350.282l-2.054,40.644
						c-0.223,4.401-3.517,8.099-7.925,8.73c-4.386,0.627-10.259,0.707-16.488-1.366c-3.831-1.275-6.676-4.504-7.382-8.442
						l-7.097-39.566H2702.835z"/>
				</g>
				<g>
					<g>
						
							<linearGradient id="SVGID_00000011719346580462428000000003994490743115690383_" gradientUnits="userSpaceOnUse" x1="3074.0857" y1="2160.4333" x2="2973.5251" y2="2451.7766">
							<stop  offset="0" style="stop-color:#CB236D"/>
							<stop  offset="1" style="stop-color:#4C246D"/>
						</linearGradient>
						<path style="fill:url(#SVGID_00000011719346580462428000000003994490743115690383_);" d="M2987.909,2443.241
							c10.8-1.506,15.686-7.116,17.734-13.114c0.014,0.054,0.027,0.108,0.041,0.162c1.588,6.326-2.095,12.883-9.458,16.002
							c-8.901,3.769-18.632,4.411-26.187,4.099c-8.105-0.334-15.545-3.688-19.635-9.056l-0.061-0.081
							C2958.479,2445.279,2969.9,2445.753,2987.909,2443.241z"/>
						
							<linearGradient id="SVGID_00000152973837534549954100000014364916798449100430_" gradientUnits="userSpaceOnUse" x1="-3807.4329" y1="2397.4021" x2="-3725.6682" y2="2397.4021" gradientTransform="matrix(-1 0 0 1 -801.7894 0)">
							<stop  offset="0" style="stop-color:#2B3582"/>
							<stop  offset="1" style="stop-color:#150E42"/>
						</linearGradient>
						<path style="fill:url(#SVGID_00000152973837534549954100000014364916798449100430_);" d="M2936.994,2350.022h18.1
							c27.57-0.563,44.883,57.587,50.55,80.106c-2.048,5.998-6.934,11.608-17.734,13.114c-18.01,2.512-29.43,2.038-37.566-1.987
							c-14.895-19.601-22.279-48.308-25.829-65.061C2920.477,2357.139,2936.994,2350.022,2936.994,2350.022z"/>
					</g>
					
						<linearGradient id="SVGID_00000004504679200485839380000012255390786336837286_" gradientUnits="userSpaceOnUse" x1="-3764.9333" y1="2341.0305" x2="-3715.9983" y2="2341.0305" gradientTransform="matrix(-1 0 0 1 -801.7894 0)">
						<stop  offset="0" style="stop-color:#F9B776"/>
						<stop  offset="1" style="stop-color:#F47960"/>
					</linearGradient>
					<path style="fill:url(#SVGID_00000004504679200485839380000012255390786336837286_);" d="M2952.767,2312.298l10.051,39.975
						c1.232,4.902-1.114,9.971-5.645,12.297c-5.623,2.885-13.539,5.917-20.814,5.04c-3.421-0.413-6.264-2.823-7.394-6.044
						l-14.756-42.058L2952.767,2312.298z"/>
				</g>
				
					<linearGradient id="SVGID_00000140715065663453782310000015648050864839055270_" gradientUnits="userSpaceOnUse" x1="3318.5872" y1="1003.2116" x2="2658.8701" y2="2283.1763">
					<stop  offset="0" style="stop-color:#53D8FF"/>
					<stop  offset="1" style="stop-color:#3840F7"/>
				</linearGradient>
				<path style="fill:url(#SVGID_00000140715065663453782310000015648050864839055270_);" d="M2964.756,2323.852
					c-12.504,11.093-53.177,12.556-53.177,12.556c-146.511-351.642-206.444-401.597-206.444-401.597
					c21.155,132.725,3.41,426.564,3.41,426.564c-24.177,10.668-55.347,0-55.347,0c-1.963-217.29-35.362-406.787-74.817-556.182
					c99.023-2.226,151.684-36.111,168.878-49.711C2829.802,1888.558,2964.756,2323.852,2964.756,2323.852z"/>
				
					<linearGradient id="SVGID_00000106851287661382897250000003194699812620832401_" gradientUnits="userSpaceOnUse" x1="-3149.5447" y1="1319.5217" x2="-4271.3477" y2="2295.2058" gradientTransform="matrix(-1 0 0 1 -801.7894 0)">
					<stop  offset="0" style="stop-color:#CB236D"/>
					<stop  offset="1" style="stop-color:#4C246D"/>
				</linearGradient>
				<path style="fill:url(#SVGID_00000106851287661382897250000003194699812620832401_);" d="M2722.111,1351.094
					c18.743,93.49,12.026,260.822,7.613,337.145c-1.24,21.453,13.736,51.192,25.84,71.481c1.899,3.182,0.726,7.257-2.57,8.951
					c-20.266,10.415-88.92,42.695-168.489,46.712c-5.305,0.268-10.043-3.346-11.417-8.478
					c-59.022-220.382-127.577-361.208-127.577-361.208C2521.198,1324.831,2722.111,1351.094,2722.111,1351.094z"/>
				
					<linearGradient id="SVGID_00000006670279717131622090000004559887528078768001_" gradientUnits="userSpaceOnUse" x1="-3600.0303" y1="2159.811" x2="-3576.5823" y2="2112.915" gradientTransform="matrix(-1 0 0 1 -801.7894 0)">
					<stop  offset="0" style="stop-color:#53D8FF"/>
					<stop  offset="1" style="stop-color:#3840F7"/>
				</linearGradient>
				<path style="fill:url(#SVGID_00000006670279717131622090000004559887528078768001_);" d="M2695.136,1926.487
					c0.832,0,1.675-0.224,2.438-0.687c2.211-1.352,2.912-4.234,1.567-6.443c-0.788-1.297-19.74-31.929-58.091-50.432
					c-2.33-1.118-5.137-0.151-6.266,2.186c-1.125,2.332-0.146,5.141,2.188,6.264c35.753,17.252,53.974,46.569,54.155,46.863
					C2692.011,1925.685,2693.555,1926.487,2695.136,1926.487z"/>
				<g>
					
						<linearGradient id="SVGID_00000165208668745908661570000010619702807171190171_" gradientUnits="userSpaceOnUse" x1="-3540.7422" y1="1627.749" x2="-3714.9407" y2="1782.0055" gradientTransform="matrix(-1 0 0 1 -801.7894 0)">
						<stop  offset="0" style="stop-color:#F9B776"/>
						<stop  offset="1" style="stop-color:#F47960"/>
					</linearGradient>
					<path style="fill:url(#SVGID_00000165208668745908661570000010619702807171190171_);" d="M2839.677,1619.411
						c-6.021,43.552-23.809,91.058-59.392,141.519l-13.527-11.027c0,0,15.615-63.354,6.738-135.254
						C2795.446,1610.366,2821.37,1614.78,2839.677,1619.411z"/>
					
						<linearGradient id="SVGID_00000019668003646946359420000008333143542424413361_" gradientUnits="userSpaceOnUse" x1="-3243.0664" y1="1216.1261" x2="-4359.811" y2="2187.4109" gradientTransform="matrix(-1 0 0 1 -801.7894 0)">
						<stop  offset="0" style="stop-color:#CB236D"/>
						<stop  offset="1" style="stop-color:#4C246D"/>
					</linearGradient>
					<path style="fill:url(#SVGID_00000019668003646946359420000008333143542424413361_);" d="M2701.176,1466.449l20.935-115.355
						c0,0,139.875,106.917,117.566,268.317c-18.307-4.631-44.23-9.044-66.181-4.762
						C2767.101,1562.854,2748,1506.626,2701.176,1466.449z"/>
				</g>
				<g>
					
						<linearGradient id="SVGID_00000125573519663858264760000012172670656311583122_" gradientUnits="userSpaceOnUse" x1="-3067.5159" y1="1417.9674" x2="-4184.2588" y2="2389.2507" gradientTransform="matrix(-1 0 0 1 -801.7894 0)">
						<stop  offset="0" style="stop-color:#CB236D"/>
						<stop  offset="1" style="stop-color:#4C246D"/>
					</linearGradient>
					<path style="fill:url(#SVGID_00000125573519663858264760000012172670656311583122_);" d="M2445.511,1445.697l53.991,116.278
						c-8.729,70.201-46.441,100.555-87.104,112.198c-2.535-31.994-10.625-57.843-18.132-75.722
						C2446.222,1544.808,2445.511,1445.697,2445.511,1445.697z"/>
					
						<linearGradient id="SVGID_00000066487522270839743690000004128061017327192734_" gradientUnits="userSpaceOnUse" x1="-3214.1877" y1="1642.3401" x2="-3077.0002" y2="1642.3401" gradientTransform="matrix(-1 0 0 1 -801.7894 0)">
						<stop  offset="0" style="stop-color:#F9B776"/>
						<stop  offset="1" style="stop-color:#F47960"/>
					</linearGradient>
					<path style="fill:url(#SVGID_00000066487522270839743690000004128061017327192734_);" d="M2394.266,1598.45
						c7.507,17.879,15.596,43.728,18.132,75.722c-108.485,42.091-137.188-39.54-137.188-39.54l20.05-3.537
						C2340.537,1635.866,2372.165,1621.27,2394.266,1598.45z"/>
				</g>
				
					<linearGradient id="SVGID_00000175286801707975205860000006851214527533969028_" gradientUnits="userSpaceOnUse" x1="-3347.5381" y1="1275.7234" x2="-3349.0364" y2="1531.9122" gradientTransform="matrix(-1 0 0 1 -801.7894 0)">
					<stop  offset="0" style="stop-color:#F9B776"/>
					<stop  offset="1" style="stop-color:#F47960"/>
				</linearGradient>
				<path style="fill:url(#SVGID_00000175286801707975205860000006851214527533969028_);" d="M2495.254,1302.142l26.066,95.82
					c2.928,10.764,14.571,16.544,24.93,12.403c11.178-4.468,25.36-10.568,37.568-17.159c13.032-7.036,17.109-23.8,8.86-36.1
					l-54.192-80.803L2495.254,1302.142z"/>
			</g>
			
				<linearGradient id="SVGID_00000026868528713327322590000006252928520602941573_" gradientUnits="userSpaceOnUse" x1="-3728.8511" y1="1742.8357" x2="-3010.4575" y2="1742.8357" gradientTransform="matrix(-1 0 0 1 -801.7894 0)">
				<stop  offset="0" style="stop-color:#2B3582"/>
				<stop  offset="1" style="stop-color:#150E42"/>
			</linearGradient>
			<path style="fill:url(#SVGID_00000026868528713327322590000006252928520602941573_);" d="M2225.489,1570.513l667.906,243.091
				c28.013,10.195,41.403,42.091,29.062,69.227l-2.026,4.456c-10.919,24.008-39.296,34.539-63.234,23.466l-648.528-300.013
				L2225.489,1570.513z"/>
			
				<linearGradient id="SVGID_00000106108774436209766550000008451094175792333968_" gradientUnits="userSpaceOnUse" x1="-3049.9907" y1="1424.2874" x2="-2390.5725" y2="1424.2874" gradientTransform="matrix(-1 0 0 1 -801.7894 0)">
				<stop  offset="0" style="stop-color:#B37CFF"/>
				<stop  offset="1" style="stop-color:#F895E7"/>
			</linearGradient>
			
				<ellipse style="opacity:0.16;fill:url(#SVGID_00000106108774436209766550000008451094175792333968_);" cx="1918.492" cy="1424.287" rx="329.709" ry="323.762"/>
			
				<linearGradient id="SVGID_00000137854899993131176940000006589388888187800971_" gradientUnits="userSpaceOnUse" x1="-4032.9675" y1="1625.9761" x2="-3013.3757" y2="430.0629" gradientTransform="matrix(-1 0 0 1 -1942.5229 0)">
				<stop  offset="0" style="stop-color:#2B3582"/>
				<stop  offset="1" style="stop-color:#150E42"/>
			</linearGradient>
			<path style="fill:url(#SVGID_00000137854899993131176940000006589388888187800971_);" d="M1551.615,1424.286
				c0,198.968,164.257,360.261,366.878,360.261s366.878-161.293,366.878-360.261c0-198.965-164.257-360.259-366.878-360.259
				S1551.615,1225.322,1551.615,1424.286z M1605.507,1424.286c0-169.738,140.128-307.339,312.985-307.339
				c172.857,0,312.985,137.601,312.985,307.339c0,169.74-140.128,307.339-312.985,307.339
				C1745.635,1731.626,1605.507,1594.026,1605.507,1424.286z"/>
			<path style="fill:#FFFFFF;" d="M2257.478,1468.137c-0.071,0-0.144-0.003-0.216-0.013c-0.925-0.119-1.577-0.963-1.46-1.889
				c1.076-8.428,1.833-17.012,2.253-25.509c0.045-0.933,0.78-1.684,1.77-1.602c0.929,0.046,1.648,0.837,1.602,1.767
				c-0.425,8.587-1.19,17.256-2.276,25.773C2259.042,1467.515,2258.315,1468.137,2257.478,1468.137z M2254.958,1367.402
				c-0.803,0-1.513-0.573-1.66-1.391c-4.1-22.872-10.676-45.376-19.545-66.89c-52.246-126.742-175.994-208.64-315.26-208.64
				c-64.942,0-128.076,18.04-182.575,52.172c-0.791,0.491-1.831,0.25-2.327-0.534c-0.494-0.791-0.255-1.833,0.536-2.327
				c55.037-34.468,118.79-52.687,184.367-52.687c140.639,0,265.612,82.715,318.382,210.73c0,0.003,0.002,0.007,0.003,0.007
				c8.958,21.735,15.599,44.469,19.743,67.576c0.165,0.916-0.447,1.793-1.363,1.958
				C2255.157,1367.392,2255.056,1367.402,2254.958,1367.402z"/>
			<g>
				
					<linearGradient id="SVGID_00000096766161488677170720000016428164581459002040_" gradientUnits="userSpaceOnUse" x1="-3481.1531" y1="2240.5071" x2="-3607.2605" y2="2407.3369" gradientTransform="matrix(-0.9897 -0.1428 -0.1428 0.9897 -662.7347 -1480.9402)">
					<stop  offset="0" style="stop-color:#F9B776"/>
					<stop  offset="1" style="stop-color:#F47960"/>
				</linearGradient>
				<path style="fill:url(#SVGID_00000096766161488677170720000016428164581459002040_);" d="M2438.23,1229.343
					c-0.238,1.645,21.74,109.345,21.74,109.345l61.229-13.856l-5.665-105.172C2515.533,1219.66,2442.205,1201.795,2438.23,1229.343z
					"/>
				
					<linearGradient id="SVGID_00000022540249011495591870000007067514945556870569_" gradientUnits="userSpaceOnUse" x1="-4520.1143" y1="1261.0532" x2="-4082.5757" y2="1316.3743" gradientTransform="matrix(-1 0 0 1 -1942.5229 0)">
					<stop  offset="0" style="stop-color:#2B3582"/>
					<stop  offset="1" style="stop-color:#150E42"/>
				</linearGradient>
				<path style="fill:url(#SVGID_00000022540249011495591870000007067514945556870569_);" d="M2501.762,1243.096l7.317,55.131
					c0.094,0.707,0.093,1.405-0.008,2.112c-0.617,4.321-3.832,19.034-18.684,14.826c-13.476-3.817-25.832-7.101-34.366-4.49
					c-3.832,1.172-6.144,5.053-5.342,8.98c1.999,9.785,6.912,31.75,14.093,50.183c1.458,3.74,5.554,5.705,9.408,4.58
					c11.612-3.385,35.904-11.21,53.971-22.083c2.448-1.472,3.906-4.136,3.787-6.99c-0.588-13.918-2.215-56.225-0.845-68.085
					c1.286-11.132,14.947-17.801,20.883-20.192c1.946-0.783,3.471-2.317,4.249-4.265c2.749-6.888,6.538-22.827-13.548-29.358
					c-4.204-1.367-6.42-5.9-4.925-10.059c2.974-8.283,4.229-20.923-11.31-27.886c-15.794-7.078-27.589,1.341-33.958,8.184
					c-2.575,2.767-6.707,3.188-9.902,1.169c-1.819-1.149-4.162-1.526-6.994,0.238c-3.815,2.377-8.867,0.757-10.836-3.284
					c-3.783-7.764-11.491-16.079-26.953-13.431c-27.437,4.698-30.545,35.102-23.306,52.919c7.239,17.817,36.695,11.031,51.473,2.049
					c11.235-6.828,25.809,0.329,32.151,4.153C2500.124,1238.708,2501.454,1240.77,2501.762,1243.096z"/>
				
					<linearGradient id="SVGID_00000044152550956410423360000009402373727829988751_" gradientUnits="userSpaceOnUse" x1="-3665.8521" y1="2372.6245" x2="-3564.7024" y2="2268.8477" gradientTransform="matrix(-0.9897 -0.1428 -0.1428 0.9897 -662.7347 -1480.9402)">
					<stop  offset="0" style="stop-color:#F9B776"/>
					<stop  offset="1" style="stop-color:#F47960"/>
				</linearGradient>
				<path style="fill:url(#SVGID_00000044152550956410423360000009402373727829988751_);" d="M2533.557,1297.359
					c0,0-11.279-31.586,0.309-39.321c11.588-7.735,28.752-3.719,24.972,19.163
					C2554.139,1305.662,2533.557,1297.359,2533.557,1297.359z"/>
			</g>
			
				<linearGradient id="SVGID_00000107581503416092112330000002629861317741492412_" gradientUnits="userSpaceOnUse" x1="-3471.9509" y1="1705.433" x2="-3646.1489" y2="1859.6892" gradientTransform="matrix(-1 0 0 1 -801.7894 0)">
				<stop  offset="0" style="stop-color:#F9B776"/>
				<stop  offset="1" style="stop-color:#F47960"/>
			</linearGradient>
			<path style="fill:url(#SVGID_00000107581503416092112330000002629861317741492412_);" d="M2772.335,1747.982l-63.14-5.146
				l-27.345,25.207c0,0,6.47,8.942,26.696,3.803c20.225-5.14,47.929-6.401,47.929-6.401s27.921,12.587,28.261-10.965
				L2772.335,1747.982z"/>
			
				<linearGradient id="SVGID_00000173843338752734591410000007292229589498703549_" gradientUnits="userSpaceOnUse" x1="-3091.575" y1="1626.2278" x2="-3042.4465" y2="1626.2278" gradientTransform="matrix(-1 0 0 1 -801.7894 0)">
				<stop  offset="0" style="stop-color:#F9B776"/>
				<stop  offset="1" style="stop-color:#F47960"/>
			</linearGradient>
			<path style="fill:url(#SVGID_00000173843338752734591410000007292229589498703549_);" d="M2283.252,1649.569
				c-5.46,4.266-24.168-4.641-35.616-10.798c-5.58-3-8.282-9.525-6.367-15.563c2.755-8.687,7.346-19.902,13.001-21.316
				C2263.656,1599.546,2305.756,1631.989,2283.252,1649.569z"/>
			<path style="fill:#FFFFFF;" d="M2880.217,1900.633c-0.7,0-1.353-0.438-1.595-1.137c-0.305-0.88,0.163-1.843,1.043-2.146
				c19.179-6.632,29.226-17.407,29.86-32.032c0.641-14.8-8.71-28.562-23.27-34.238l-80.195-31.271
				c-0.868-0.34-1.297-1.319-0.959-2.185c0.34-0.87,1.322-1.295,2.186-0.959l80.195,31.271
				c15.906,6.203,26.119,21.284,25.416,37.527c-0.7,16.148-11.51,27.948-32.128,35.078
				C2880.586,1900.603,2880.399,1900.633,2880.217,1900.633z"/>
			<path style="fill:#FFFFFF;" d="M2781.962,1790.289c-0.205,0-0.412-0.036-0.613-0.115l-10.393-4.054
				c-0.869-0.34-1.299-1.318-0.959-2.185c0.339-0.867,1.322-1.292,2.185-0.959l10.393,4.054c0.868,0.339,1.299,1.318,0.959,2.185
				C2783.273,1789.88,2782.635,1790.289,2781.962,1790.289z"/>
		</g>
		<g>
			
				<linearGradient id="SVGID_00000036242718371904364590000000558895332328854913_" gradientUnits="userSpaceOnUse" x1="6887.5938" y1="3134.2383" x2="6422.9824" y2="3639.6055" gradientTransform="matrix(1 0 0 1 -5986.3984 0)">
				<stop  offset="0" style="stop-color:#2B3582"/>
				<stop  offset="1" style="stop-color:#150E42"/>
			</linearGradient>
			<path style="fill:url(#SVGID_00000036242718371904364590000000558895332328854913_);" d="M754.331,3171.885
				c0,0-4.812,27.24-7.171,54.204c-0.922,10.538,7.203,19.688,17.772,20.128c35.909,1.495,112.718,4.403,140.279,3.173
				c4.143-0.184,6.852-4.426,5.319-8.28l0,0c-1.285-3.23-3.764-5.84-6.921-7.292l-126.874-58.312L754.331,3171.885z"/>
			
				<linearGradient id="SVGID_00000088813175121971893160000013158814290314375101_" gradientUnits="userSpaceOnUse" x1="6736.7876" y1="3171.7729" x2="6778.0566" y2="3171.7729" gradientTransform="matrix(1 0 0 1 -5986.3984 0)">
				<stop  offset="0" style="stop-color:#F9B776"/>
				<stop  offset="1" style="stop-color:#F47960"/>
			</linearGradient>
			<path style="fill:url(#SVGID_00000088813175121971893160000013158814290314375101_);" d="M750.389,3155.88l3.865,32.582
				c0,0,22.226,10.346,37.404-1.303l-9.204-36.31L750.389,3155.88z"/>
			
				<linearGradient id="SVGID_00000035507914534347393630000004036418444351594885_" gradientUnits="userSpaceOnUse" x1="6554.126" y1="3045.5083" x2="7220.7505" y2="2221.7104" gradientTransform="matrix(1 0 0 1 -5986.3984 0)">
				<stop  offset="0" style="stop-color:#2B3582"/>
				<stop  offset="1" style="stop-color:#150E42"/>
			</linearGradient>
			<path style="fill:url(#SVGID_00000035507914534347393630000004036418444351594885_);" d="M753.294,2543.33
				c-1.67,8.508-8.963,424.598,35.513,611.062c0.727,3.043-0.816,6.179-3.712,7.362c-6.821,2.787-20.195,6.823-36.222,7.362
				c-4.964,0.166-9.414-3.059-10.814-7.823c-12.713-43.263-73.635-260.021-81.582-467.082c-8.88-231.371,0-7.878,0-7.878
				l5.208-143.02L753.294,2543.33z"/>
			
				<linearGradient id="SVGID_00000084489813242356975720000014579881534784514202_" gradientUnits="userSpaceOnUse" x1="6783.3633" y1="3038.4177" x2="6318.7563" y2="3543.7803" gradientTransform="matrix(1 0 0 1 -5986.3984 0)">
				<stop  offset="0" style="stop-color:#2B3582"/>
				<stop  offset="1" style="stop-color:#150E42"/>
			</linearGradient>
			<path style="fill:url(#SVGID_00000084489813242356975720000014579881534784514202_);" d="M608.383,3186.095
				c0,0-7.66,13.752-15.075,50.293c-1.339,6.599,3.272,12.915,9.973,13.574c11.857,1.166,30.111,2.665,44.733,2.564
				c6.74-0.047,12-5.916,11.188-12.607c-1.62-13.338-6.666-35.221-22.253-52.276L608.383,3186.095z"/>
			
				<linearGradient id="SVGID_00000101811350145608565750000000196971834223631283_" gradientUnits="userSpaceOnUse" x1="6588.0542" y1="3169.657" x2="6623.686" y2="3169.657" gradientTransform="matrix(1 0 0 1 -5986.3984 0)">
				<stop  offset="0" style="stop-color:#F9B776"/>
				<stop  offset="1" style="stop-color:#F47960"/>
			</linearGradient>
			<path style="fill:url(#SVGID_00000101811350145608565750000000196971834223631283_);" d="M601.656,3144.188l9.033,49.273
				c0,0,8.932,6.643,26.599,1.828l-4.311-53.014L601.656,3144.188z"/>
			
				<linearGradient id="SVGID_00000137812981406054719190000008334972071567128960_" gradientUnits="userSpaceOnUse" x1="6488.7612" y1="2992.6138" x2="7155.3828" y2="2168.8196" gradientTransform="matrix(1 0 0 1 -5986.3984 0)">
				<stop  offset="0" style="stop-color:#2B3582"/>
				<stop  offset="1" style="stop-color:#150E42"/>
			</linearGradient>
			<path style="fill:url(#SVGID_00000137812981406054719190000008334972071567128960_);" d="M577.253,2556.098
				c-36.376,219.532,7.891,542.593,22.821,605.823c0.914,3.871,4.038,6.837,7.962,7.487c6.664,1.105,17.635,2.006,28.452-1.135
				c3.727-1.082,6.345-4.444,6.498-8.322c2.003-51.12-1.603-364.947,32.291-488.974c1.718-6.285,5.556-11.767,10.867-15.543
				l65.787-46.769l5.044-75.597L577.253,2556.098z"/>
			<g>
				
					<linearGradient id="SVGID_00000170276089924063717200000017520718413042729865_" gradientUnits="userSpaceOnUse" x1="439.485" y1="2674.3159" x2="941.4626" y2="1993.4724">
					<stop  offset="0" style="stop-color:#53D8FF"/>
					<stop  offset="1" style="stop-color:#3840F7"/>
				</linearGradient>
				<path style="fill:url(#SVGID_00000170276089924063717200000017520718413042729865_);" d="M809.043,2140.125
					c-109.013-1.801-229.295,28.623-229.295,28.623c-32.494,189.604-5.682,408.298-5.682,408.298
					c84.395,22.132,179.597-13.531,179.597-13.531c14.026-79.25,79.473-302.284,79.473-302.284
					c53.264-6.61,97.141-21.978,133.274-42.294c-27.562-31.948-40.555-72.6-46.199-96.631
					C881.668,2134.283,842.667,2140.682,809.043,2140.125z"/>
				
					<linearGradient id="SVGID_00000155836650925320802040000011604982241089955744_" gradientUnits="userSpaceOnUse" x1="6906.6089" y1="2095.1155" x2="7117.4448" y2="2095.1155" gradientTransform="matrix(1 0 0 1 -5986.3984 0)">
					<stop  offset="0" style="stop-color:#F9B776"/>
					<stop  offset="1" style="stop-color:#F47960"/>
				</linearGradient>
				<path style="fill:url(#SVGID_00000155836650925320802040000011604982241089955744_);" d="M1131.046,1979.557
					c-10.708-12.935-24.263-6.816-24.263-6.816c-16.042,67.764-100.156,122.708-186.573,149.565
					c5.643,24.031,18.637,64.683,46.199,96.631C1109.825,2138.299,1131.046,1979.557,1131.046,1979.557z"/>
			</g>
			<g>
				
					<linearGradient id="SVGID_00000069390194473028706160000017003981780971921330_" gradientUnits="userSpaceOnUse" x1="3377.3005" y1="2059.7747" x2="3518.7769" y2="2381.6653" gradientTransform="matrix(-1 0 0 1 4461.3799 0)">
					<stop  offset="0" style="stop-color:#F9B776"/>
					<stop  offset="1" style="stop-color:#F47960"/>
				</linearGradient>
				<path style="fill:url(#SVGID_00000069390194473028706160000017003981780971921330_);" d="M1128.447,1982.845
					c1.121,3.563-11.855,8.986-19.495-5.583c-0.266-6.983-4.513-36.896-0.341-42.585c22.222-30.295,65.305-68.272,65.305-68.272
					c7.281,7.185,1.282,14.242,1.282,14.242l-20.9,21.773c4.372,7.899,9.704,14.567,12.203,24.123
					c1.893,7.236,0.735,14.969-2.919,21.555c-3.669,6.609-8.674,15.201-13.407,21.925
					C1141.219,1982.75,1128.447,1982.845,1128.447,1982.845z"/>
				
					<linearGradient id="SVGID_00000040546759871021195810000005524278964478839460_" gradientUnits="userSpaceOnUse" x1="7116.4331" y1="1952.5732" x2="7175.4648" y2="1861.812" gradientTransform="matrix(1 0 0 1 -5986.3984 0)">
					<stop  offset="0" style="stop-color:#F9B776"/>
					<stop  offset="1" style="stop-color:#F47960"/>
				</linearGradient>
				<path style="fill:url(#SVGID_00000040546759871021195810000005524278964478839460_);" d="M1145.157,1916.548l-19.046,16.145
					l-5.979,16.074l16.981,18.839c0,0,5.71-31.896,9.953-38.799C1151.309,1921.903,1149.108,1918.566,1145.157,1916.548z"/>
			</g>
			
				<linearGradient id="SVGID_00000018959341809111674890000012523143323975934351_" gradientUnits="userSpaceOnUse" x1="320.0242" y1="2586.2393" x2="822.0004" y2="1905.3977">
				<stop  offset="0" style="stop-color:#53D8FF"/>
				<stop  offset="1" style="stop-color:#3840F7"/>
			</linearGradient>
			<path style="fill:url(#SVGID_00000018959341809111674890000012523143323975934351_);" d="M621.56,2274.305l-41.812-105.557
				c0,0-101.824,69.186-118.569,156.904c19.24,1.417,54.25,6.421,88.517,23.724C557.227,2307.958,621.56,2274.305,621.56,2274.305z"
				/>
			
				<linearGradient id="SVGID_00000081612013354723846080000017053928166392515477_" gradientUnits="userSpaceOnUse" x1="6445.2563" y1="2393.759" x2="6712.0708" y2="2393.759" gradientTransform="matrix(1 0 0 1 -5986.3984 0)">
				<stop  offset="0" style="stop-color:#F9B776"/>
				<stop  offset="1" style="stop-color:#F47960"/>
			</linearGradient>
			<path style="fill:url(#SVGID_00000081612013354723846080000017053928166392515477_);" d="M710.543,2373.63
				c0,0-114.323,64.61-152.896,9.441c-8.009-11.456-9.924-22.84-7.951-33.694c-34.268-17.303-69.277-22.307-88.517-23.724
				c-5.049,26.444-2.38,54.569,13.159,82.996c67.57,123.602,251.335-6.832,251.335-6.832L710.543,2373.63z"/>
			<g>
				
					<linearGradient id="SVGID_00000182516426374524298430000016172693733662054835_" gradientUnits="userSpaceOnUse" x1="7054.4253" y1="2326.5757" x2="6751.4316" y2="2351.5283" gradientTransform="matrix(1 0 0 1 -5986.3984 0)">
					<stop  offset="0" style="stop-color:#2B3582"/>
					<stop  offset="1" style="stop-color:#150E42"/>
				</linearGradient>
				<path style="fill:url(#SVGID_00000182516426374524298430000016172693733662054835_);" d="M696.807,2455.368l62.393-217.89
					c0.708-2.473,2.818-4.277,5.373-4.575c11.305-1.318,44.06-5.021,81.881-8.22c41.002-3.469,87.956-6.345,119.983-4.948
					c9.297,0.406,15.122,10.19,10.977,18.522c-23.368,46.972-90.075,178.835-124.631,224.063c-1.227,1.606-3.125,2.544-5.145,2.527
					l-144.761-1.347C698.665,2463.459,695.648,2459.418,696.807,2455.368z"/>
				
					<linearGradient id="SVGID_00000000930362648896486150000009933809910955795109_" gradientUnits="userSpaceOnUse" x1="6884.6475" y1="2107.7053" x2="6853.4019" y2="2244.9133" gradientTransform="matrix(1 0 0 1 -5986.3984 0)">
					<stop  offset="0" style="stop-color:#53D8FF"/>
					<stop  offset="1" style="stop-color:#3840F7"/>
				</linearGradient>
				<path style="fill:url(#SVGID_00000000930362648896486150000009933809910955795109_);" d="M852.927,2205.792l45.236-7.537
					c2.409-0.402,4.383,1.901,3.616,4.219l-4.478,13.57c-0.39,1.181-1.42,2.036-2.653,2.201l-43.531,5.814
					c-2.252,0.301-4.109-1.744-3.59-3.958l2.772-11.846C850.597,2206.978,851.633,2206.008,852.927,2205.792z"/>
				
					<linearGradient id="SVGID_00000091711335413677260540000017675215678891295135_" gradientUnits="userSpaceOnUse" x1="6868.2949" y1="2165.2603" x2="6853.3516" y2="2254.9211" gradientTransform="matrix(1 0 0 1 -5986.3984 0)">
					<stop  offset="0" style="stop-color:#53D8FF"/>
					<stop  offset="1" style="stop-color:#3840F7"/>
				</linearGradient>
				<path style="fill:url(#SVGID_00000091711335413677260540000017675215678891295135_);" d="M819.055,2244.088l3.726-19.411
					c0.374-1.948,1.981-3.417,3.953-3.618l91.367-9.271c3.075-0.313,5.538,2.505,4.816,5.511l-5.809,24.188
					c-0.464,1.936-2.149,3.334-4.137,3.433l-89.283,4.494C820.782,2249.561,818.507,2246.945,819.055,2244.088z"/>
				
					<linearGradient id="SVGID_00000098900412483828475140000017409929970644527495_" gradientUnits="userSpaceOnUse" x1="6692.2612" y1="2365.7834" x2="6775.3848" y2="2365.7834" gradientTransform="matrix(1 0 0 1 -5986.3984 0)">
					<stop  offset="0" style="stop-color:#F9B776"/>
					<stop  offset="1" style="stop-color:#F47960"/>
				</linearGradient>
				<path style="fill:url(#SVGID_00000098900412483828475140000017409929970644527495_);" d="M711.881,2402.725
					c0,0-8.691-35.739-5.185-48.418c3.506-12.679,10.299-28.981,32.941-25.359c22.641,3.623,49.349,13.161,49.349,13.161
					s-1.349,16.516-18.557,11.187l10.67,8.257c0,0-1.525,13.224-16.06,6.159l9.925,10.95c0,0-6.242,10.86-16.936,3.894
					C747.335,2375.591,742.208,2407.029,711.881,2402.725z"/>
			</g>
			
				<linearGradient id="SVGID_00000034795487444456249090000011768665052982957457_" gradientUnits="userSpaceOnUse" x1="6650.1328" y1="2108.5181" x2="6755.6221" y2="2108.5181" gradientTransform="matrix(1 0 0 1 -5986.3984 0)">
				<stop  offset="0" style="stop-color:#F9B776"/>
				<stop  offset="1" style="stop-color:#F47960"/>
			</linearGradient>
			<path style="fill:url(#SVGID_00000034795487444456249090000011768665052982957457_);" d="M698.623,2051.625l-34.687,100.31
				c-0.574,1.662,0.108,3.502,1.648,4.352c9.455,5.229,43.52,20.339,84.57-5.688c4.277-2.712,7.188-7.134,7.837-12.156
				l11.232-86.818H698.623z"/>
			<g>
				
					<linearGradient id="SVGID_00000118358475298394109330000017589258997516661403_" gradientUnits="userSpaceOnUse" x1="-660.0806" y1="3223.9031" x2="-699.501" y2="3093.8855" gradientTransform="matrix(0.746 -0.6659 0.6659 0.746 -860.063 -803.1727)">
					<stop  offset="0" style="stop-color:#F9B776"/>
					<stop  offset="1" style="stop-color:#F47960"/>
				</linearGradient>
				<path style="fill:url(#SVGID_00000118358475298394109330000017589258997516661403_);" d="M774.094,1958.735
					c0,0,38.089,71.699,33.207,100.661c-4.882,28.962-52.088,26.883-93.309,3.36l-28.804-77.418L774.094,1958.735z"/>
				
					<linearGradient id="SVGID_00000114764395021153482940000012319104531192689313_" gradientUnits="userSpaceOnUse" x1="-695.6457" y1="2997.3665" x2="-662.6708" y2="3185.4453" gradientTransform="matrix(0.746 -0.6659 0.6659 0.746 -860.063 -803.1727)">
					<stop  offset="0" style="stop-color:#2B3582"/>
					<stop  offset="1" style="stop-color:#150E42"/>
				</linearGradient>
				<path style="fill:url(#SVGID_00000114764395021153482940000012319104531192689313_);" d="M715.814,2024.737
					c1.675-0.742,2.294-2.792,1.29-4.325c-3.052-4.662-8.772-14.173-10.596-22.5c0,0-6.847-4.385,17.427-10.195
					c24.275-5.811,60.474-14.829,68.083-35.491c7.419-20.145-12.073-70.807-43.17-30.44c-1.183,1.536-3.501,1.57-4.683,0.032
					c-5.098-6.635-18.501-20.407-37.109-12.057c-17.412,7.813-19.374,20.572-19.135,27.004c0.07,1.892-1.621,3.363-3.481,3.008
					c-8.804-1.679-29.931-3.121-39.792,18.551c-8.122,17.851-2.843,27.957,1.965,32.899c1.558,1.601,0.875,4.238-1.261,4.892
					c-5.786,1.771-13.258,6.677-12.51,20.233c1.033,18.741,21.987,17.09,27.952,16.236c0.978-0.139,1.962,0.196,2.624,0.928
					c5.115,5.661,28.162,29.696,53.104,32.593c2.16,0.25,3.834-1.882,3.127-3.938l-10.795-31.378
					c-0.501-1.457,0.196-3.056,1.605-3.68L715.814,2024.737z"/>
				
					<linearGradient id="SVGID_00000041992750296817297120000002656120194023903931_" gradientUnits="userSpaceOnUse" x1="-700.3773" y1="3223.2991" x2="-735.845" y2="3106.3181" gradientTransform="matrix(0.746 -0.6659 0.6659 0.746 -860.063 -803.1727)">
					<stop  offset="0" style="stop-color:#F9B776"/>
					<stop  offset="1" style="stop-color:#F47960"/>
				</linearGradient>
				<path style="fill:url(#SVGID_00000041992750296817297120000002656120194023903931_);" d="M720.154,2029.19
					c0,0-27.12-18.607-29.101-2.938c-1.982,15.67,24.421,22.697,37.499,16.855L720.154,2029.19z"/>
			</g>
		</g>
		<g>
			
				<linearGradient id="SVGID_00000100383298283162710450000013276684276243224461_" gradientUnits="userSpaceOnUse" x1="3671.1963" y1="1652.6664" x2="2395.3289" y2="2953.2852">
				<stop  offset="0" style="stop-color:#53D8FF"/>
				<stop  offset="1" style="stop-color:#3840F7"/>
			</linearGradient>
			<path style="fill:url(#SVGID_00000100383298283162710450000013276684276243224461_);" d="M2506.922,3221.221
				c4.812,0,8.712-2.812,8.712-6.281v-750.824c0-3.47-3.9-6.281-8.712-6.281c-4.812,0-8.711,2.812-8.711,6.281v750.824
				C2498.21,3218.409,2502.11,3221.221,2506.922,3221.221z"/>
			
				<linearGradient id="SVGID_00000093134758560274639400000010196722127678712709_" gradientUnits="userSpaceOnUse" x1="3750.8713" y1="1730.8218" x2="2475.0015" y2="3031.4429">
				<stop  offset="0" style="stop-color:#53D8FF"/>
				<stop  offset="1" style="stop-color:#3840F7"/>
			</linearGradient>
			<path style="fill:url(#SVGID_00000093134758560274639400000010196722127678712709_);" d="M2665.98,3221.221
				c4.812,0,8.712-2.832,8.712-6.327v-756.268c0-3.495-3.9-6.327-8.712-6.327c-4.812,0-8.712,2.832-8.712,6.327v756.268
				C2657.268,3218.389,2661.168,3221.221,2665.98,3221.221z"/>
			
				<linearGradient id="SVGID_00000010305585043217099570000011038611180697191852_" gradientUnits="userSpaceOnUse" x1="3953.8513" y1="1929.9415" x2="2677.9836" y2="3230.5605">
				<stop  offset="0" style="stop-color:#53D8FF"/>
				<stop  offset="1" style="stop-color:#3840F7"/>
			</linearGradient>
			<path style="fill:url(#SVGID_00000010305585043217099570000011038611180697191852_);" d="M3246.004,3227.123
				c1.138,0,2.292-0.2,3.405-0.623c4.427-1.682,6.491-6.253,4.609-10.213l-362.742-762.59c0,0-20.816-3.96-18.934,0l365.64,768.685
				C3239.392,3225.344,3242.616,3227.123,3246.004,3227.123z"/>
			
				<linearGradient id="SVGID_00000116943231727813698310000012677614176836259756_" gradientUnits="userSpaceOnUse" x1="3814.636" y1="1793.3763" x2="2538.7668" y2="3093.9968">
				<stop  offset="0" style="stop-color:#53D8FF"/>
				<stop  offset="1" style="stop-color:#3840F7"/>
			</linearGradient>
			<path style="fill:url(#SVGID_00000116943231727813698310000012677614176836259756_);" d="M2970.827,3227.123
				c1.138,0,2.292-0.2,3.405-0.623c4.427-1.682,6.491-6.253,4.609-10.213l-361.023-758.978c-1.884-3.957-21.179-4.724-19.297-0.764
				l364.286,765.837C2964.215,3225.344,2967.439,3227.123,2970.827,3227.123z"/>
			
				<linearGradient id="SVGID_00000147935630430031225390000002280657644151794074_" gradientUnits="userSpaceOnUse" x1="3619.8933" y1="1577.6761" x2="2325.6082" y2="2897.0698">
				<stop  offset="0" style="stop-color:#53D8FF"/>
				<stop  offset="1" style="stop-color:#3840F7"/>
			</linearGradient>
			<path style="fill:url(#SVGID_00000147935630430031225390000002280657644151794074_);" d="M2488.925,2471.977h528.902
				c1.548,0,2.803-1.255,2.803-2.803v-16.341c0-1.548-1.255-2.803-2.803-2.803h-528.902c-1.548,0-2.803,1.255-2.803,2.803v16.341
				C2486.122,2470.722,2487.377,2471.977,2488.925,2471.977z"/>
			
				<linearGradient id="SVGID_00000175309731907111969000000001867797240691074234_" gradientUnits="userSpaceOnUse" x1="3710.1687" y1="1690.8936" x2="2434.2988" y2="2991.5146">
				<stop  offset="0" style="stop-color:#53D8FF"/>
				<stop  offset="1" style="stop-color:#3840F7"/>
			</linearGradient>
			
				<rect x="2677.316" y="2595.323" style="fill:url(#SVGID_00000175309731907111969000000001867797240691074234_);" width="275.992" height="15.572"/>
			
				<linearGradient id="SVGID_00000120533980616578231270000005351257155452029348_" gradientUnits="userSpaceOnUse" x1="3840.4939" y1="1818.7396" x2="2564.6245" y2="3119.3604">
				<stop  offset="0" style="stop-color:#53D8FF"/>
				<stop  offset="1" style="stop-color:#3840F7"/>
			</linearGradient>
			
				<rect x="2759.299" y="2772.451" style="fill:url(#SVGID_00000120533980616578231270000005351257155452029348_);" width="275.992" height="15.572"/>
			
				<linearGradient id="SVGID_00000143602680510403226990000015259690117685441698_" gradientUnits="userSpaceOnUse" x1="3972.8545" y1="1948.5798" x2="2696.9839" y2="3249.2017">
				<stop  offset="0" style="stop-color:#53D8FF"/>
				<stop  offset="1" style="stop-color:#3840F7"/>
			</linearGradient>
			<path style="fill:url(#SVGID_00000143602680510403226990000015259690117685441698_);" d="M2845.271,2965.15h275.992
				c4.813,0,8.712-3.485,8.712-7.785c0-4.301-3.899-7.786-8.712-7.786h-275.992c-4.812,0-8.712,3.485-8.712,7.786
				C2836.56,2961.665,2840.46,2965.15,2845.271,2965.15z"/>
			
				<linearGradient id="SVGID_00000098900204037603685770000009139677722226938807_" gradientUnits="userSpaceOnUse" x1="4103.7612" y1="2076.9968" x2="2827.8904" y2="3377.6189">
				<stop  offset="0" style="stop-color:#53D8FF"/>
				<stop  offset="1" style="stop-color:#3840F7"/>
			</linearGradient>
			<path style="fill:url(#SVGID_00000098900204037603685770000009139677722226938807_);" d="M2928.392,3142.281h275.992
				c4.812,0,8.712-3.486,8.712-7.787c0-4.3-3.9-7.785-8.712-7.785h-275.992c-4.812,0-8.712,3.485-8.712,7.785
				C2919.68,3138.795,2923.58,3142.281,2928.392,3142.281z"/>
		</g>
		<g>
			
				<linearGradient id="SVGID_00000181067851873248672030000002168631672503718821_" gradientUnits="userSpaceOnUse" x1="3075.6731" y1="106.9217" x2="2407.3606" y2="1477.2988">
				<stop  offset="0" style="stop-color:#FDF53F"/>
				<stop  offset="1" style="stop-color:#D93C65"/>
			</linearGradient>
			<path style="fill:url(#SVGID_00000181067851873248672030000002168631672503718821_);" d="M2433.264,665.117l100.925-83.798
				c9.731-8.08,21.982-12.503,34.63-12.503h488.656c29.939,0,54.21,24.27,54.21,54.212v167.596c0,29.94-24.271,54.211-54.21,54.211
				h-488.656c-12.648,0-24.899-4.423-34.63-12.503l-100.925-83.799C2407.157,726.857,2407.157,686.795,2433.264,665.117z"/>
			<path style="fill:#FFFFFF;" d="M2909.184,616.366h87.162c22.898,0,41.463,18.564,41.463,41.464v87.161
				c0,22.9-18.564,41.464-41.463,41.464h-87.162c-22.898,0-41.463-18.564-41.463-41.464V657.83
				C2867.721,634.929,2886.285,616.366,2909.184,616.366z"/>
			
				<linearGradient id="SVGID_00000022546408669804372930000000871948799944387518_" gradientUnits="userSpaceOnUse" x1="3270.8105" y1="4.0323" x2="2835.4172" y2="915.3221">
				<stop  offset="0" style="stop-color:#FDF53F"/>
				<stop  offset="1" style="stop-color:#D93C65"/>
			</linearGradient>
			<polygon style="fill:url(#SVGID_00000022546408669804372930000000871948799944387518_);" points="2905.35,679.711 
				2950.972,762.701 3000.179,640.118 2946.483,704.722 			"/>
		</g>
		<g>
			<g>
				
					<linearGradient id="SVGID_00000072250927537700215500000016406798382542844303_" gradientUnits="userSpaceOnUse" x1="514.2119" y1="1225.6388" x2="666.717" y2="1048.6241" gradientTransform="matrix(0.9987 0.0513 -0.0513 0.9987 336.5056 581.8078)">
					<stop  offset="0" style="stop-color:#FDF53F"/>
					<stop  offset="1" style="stop-color:#D93C65"/>
				</linearGradient>
				<circle style="fill:url(#SVGID_00000072250927537700215500000016406798382542844303_);" cx="951.821" cy="1659.859" r="113.7"/>
				
					<linearGradient id="SVGID_00000120547435284302525690000000412253090013119632_" gradientUnits="userSpaceOnUse" x1="752.8923" y1="919.5161" x2="301.9308" y2="1600.7905" gradientTransform="matrix(0.9987 0.0513 -0.0513 0.9987 336.5056 581.8078)">
					<stop  offset="0" style="stop-color:#FDF53F"/>
					<stop  offset="1" style="stop-color:#D93C65"/>
				</linearGradient>
				
					<circle style="fill:url(#SVGID_00000120547435284302525690000000412253090013119632_);" cx="951.821" cy="1659.859" r="109.919"/>
				<path style="fill:#FFFFFF;" d="M863.451,1613.282c-0.556-0.028-1.114-0.183-1.631-0.479c-1.764-1.007-2.376-3.253-1.369-5.013
					c19.809-34.701,56.885-54.983,96.76-52.936c6.364,0.327,12.706,1.227,18.852,2.675c1.975,0.465,3.199,2.443,2.735,4.418
					c-0.465,1.978-2.435,3.218-4.421,2.734c-5.716-1.343-11.619-2.181-17.543-2.486c-37.087-1.904-71.572,16.962-89.999,49.236
					C866.124,1612.679,864.793,1613.351,863.451,1613.282z"/>
				
					<ellipse transform="matrix(0.7071 -0.7071 0.7071 0.7071 -896.0289 1161.5415)" style="opacity:0.78;fill:#FFFFFF;" cx="954.09" cy="1662.373" rx="93.034" ry="93.033"/>
				<g>
					
						<linearGradient id="SVGID_00000103976724910602035990000018366799722480970632_" gradientUnits="userSpaceOnUse" x1="-175.1352" y1="918.8038" x2="-403.8299" y2="1302.7443" gradientTransform="matrix(0.9504 0.311 -0.311 0.9504 1499.6754 766.4576)">
						<stop  offset="0" style="stop-color:#FDF53F"/>
						<stop  offset="1" style="stop-color:#D93C65"/>
					</linearGradient>
					<path style="fill:url(#SVGID_00000103976724910602035990000018366799722480970632_);" d="M941.427,1730.976l0.519-10.108
						c-10.516-0.963-20.811-3.985-28.047-7.606c-2.584-1.292-3.779-4.328-2.877-7.073l3.051-9.284
						c1.119-3.406,4.967-4.999,8.198-3.446c7.185,3.456,16.127,6.356,25.904,6.858c10.15,0.521,17.895-2.531,18.257-9.585
						c0.327-6.364-5.328-10.449-19.24-14.957c-19.844-6.538-33.844-16.053-32.935-33.772c0.821-15.999,13.146-27.612,33.613-29.838
						l0.519-10.109c0.167-3.253,2.939-5.755,6.192-5.588l5.939,0.305c3.252,0.167,5.754,2.94,5.587,6.192l-0.466,9.076
						c9.731,0.891,16.743,2.922,22.274,5.191c2.834,1.162,4.251,4.352,3.299,7.263l-2.808,8.586
						c-1.083,3.311-4.766,4.966-7.957,3.569c-5.085-2.227-12.313-4.646-21.844-5.135c-12.042-0.618-15.738,4.194-15.968,8.667
						c-0.282,5.504,6.748,9.66,22.155,15.281c22.019,7.857,30.831,17.623,29.975,34.31c-0.786,15.31-12.846,28.49-35.042,30.8
						l-0.581,11.312c-0.167,3.253-2.939,5.754-6.192,5.587l-5.94-0.305C943.762,1737.001,941.26,1734.229,941.427,1730.976z"/>
				</g>
			</g>
			<g>
				
					<linearGradient id="SVGID_00000053536507915881478200000015550975398391448251_" gradientUnits="userSpaceOnUse" x1="495.2499" y1="934.4185" x2="744.1379" y2="645.5311" gradientTransform="matrix(0.9987 0.0513 -0.0513 0.9987 336.5056 581.8078)">
					<stop  offset="0" style="stop-color:#FDF53F"/>
					<stop  offset="1" style="stop-color:#D93C65"/>
				</linearGradient>
				
					<circle style="fill:url(#SVGID_00000053536507915881478200000015550975398391448251_);" cx="1051.88" cy="1259.104" r="185.558"/>
				
					<linearGradient id="SVGID_00000007417552933455109700000012258426916565932713_" gradientUnits="userSpaceOnUse" x1="884.7758" y1="434.827" x2="148.8072" y2="1546.6656" gradientTransform="matrix(0.9987 0.0513 -0.0513 0.9987 336.5056 581.8078)">
					<stop  offset="0" style="stop-color:#FDF53F"/>
					<stop  offset="1" style="stop-color:#D93C65"/>
				</linearGradient>
				
					<circle style="fill:url(#SVGID_00000007417552933455109700000012258426916565932713_);" cx="1051.88" cy="1259.104" r="179.388"/>
				<path style="fill:#FFFFFF;" d="M907.794,1180.543c-0.521-0.027-1.044-0.172-1.529-0.449c-1.653-0.944-2.228-3.05-1.284-4.699
					c31.849-55.789,91.458-88.402,155.566-85.111c10.23,0.525,20.429,1.972,30.311,4.306c1.853,0.435,3.001,2.29,2.564,4.145
					c-0.437,1.851-2.291,3.02-4.145,2.56c-9.48-2.235-19.266-3.624-29.083-4.128c-61.495-3.157-118.675,28.128-149.228,81.642
					C910.299,1179.977,909.052,1180.608,907.794,1180.543z"/>
				
					<ellipse transform="matrix(0.7071 -0.7071 0.7071 0.7071 -584.0496 1116.3954)" style="opacity:0.78;fill:#FFFFFF;" cx="1055.584" cy="1263.208" rx="151.83" ry="151.83"/>
				<g>
					
						<linearGradient id="SVGID_00000083810927433834595450000010738853068789958843_" gradientUnits="userSpaceOnUse" x1="-161.8864" y1="443.1673" x2="-535.1161" y2="1069.7582" gradientTransform="matrix(0.9504 0.311 -0.311 0.9504 1499.6754 766.4576)">
						<stop  offset="0" style="stop-color:#FDF53F"/>
						<stop  offset="1" style="stop-color:#D93C65"/>
					</linearGradient>
					<path style="fill:url(#SVGID_00000083810927433834595450000010738853068789958843_);" d="M1034.917,1375.168l0.847-16.497
						c-17.162-1.571-33.963-6.503-45.773-12.412c-4.217-2.11-6.168-7.064-4.695-11.544l4.979-15.151
						c1.827-5.558,8.107-8.159,13.38-5.623c11.726,5.639,26.32,10.373,42.276,11.192c16.564,0.85,29.205-4.131,29.796-15.642
						c0.533-10.387-8.695-17.053-31.399-24.411c-32.385-10.67-55.234-26.199-53.749-55.116c1.34-26.11,21.455-45.063,54.856-48.695
						l0.847-16.498c0.273-5.309,4.797-9.391,10.105-9.118l9.693,0.497c5.309,0.273,9.391,4.797,9.119,10.105l-0.76,14.813
						c15.88,1.454,27.324,4.769,36.351,8.472c4.625,1.897,6.938,7.102,5.384,11.853l-4.584,14.014
						c-1.767,5.404-7.778,8.104-12.986,5.824c-8.299-3.635-20.095-7.582-35.649-8.38c-19.653-1.009-25.684,6.844-26.059,14.144
						c-0.461,8.984,11.013,15.765,36.156,24.938c35.936,12.822,50.317,28.761,48.918,55.993
						c-1.282,24.987-20.964,46.495-57.188,50.266l-0.948,18.461c-0.273,5.309-4.797,9.392-10.105,9.119l-9.694-0.497
						C1038.727,1385.001,1034.645,1380.477,1034.917,1375.168z"/>
				</g>
			</g>
			<g>
				
					<linearGradient id="SVGID_00000143611622326442225830000015278062854381497787_" gradientUnits="userSpaceOnUse" x1="754.9056" y1="1274.9564" x2="1011.0084" y2="977.6947" gradientTransform="matrix(0.9987 0.0513 -0.0513 0.9987 336.5056 581.8078)">
					<stop  offset="0" style="stop-color:#FDF53F"/>
					<stop  offset="1" style="stop-color:#D93C65"/>
				</linearGradient>
				
					<circle style="fill:url(#SVGID_00000143611622326442225830000015278062854381497787_);" cx="1301.518" cy="1604.365" r="190.937"/>
				
					<linearGradient id="SVGID_00000093861450914062649310000015264159262668416156_" gradientUnits="userSpaceOnUse" x1="1155.723" y1="760.8826" x2="398.4205" y2="1904.9508" gradientTransform="matrix(0.9987 0.0513 -0.0513 0.9987 336.5056 581.8078)">
					<stop  offset="0" style="stop-color:#FDF53F"/>
					<stop  offset="1" style="stop-color:#D93C65"/>
				</linearGradient>
				
					<circle style="fill:url(#SVGID_00000093861450914062649310000015264159262668416156_);" cx="1301.518" cy="1604.365" r="184.588"/>
				<path style="fill:#FFFFFF;" d="M1153.26,1523.427c-0.521-0.027-1.044-0.172-1.529-0.449c-1.653-0.944-2.228-3.049-1.284-4.699
					c32.753-57.374,94.053-90.91,159.983-87.526c10.52,0.54,21.008,2.029,31.172,4.428c1.853,0.436,3.001,2.291,2.564,4.145
					c-0.437,1.851-2.279,3.01-4.145,2.56c-9.764-2.3-19.839-3.731-29.945-4.25c-63.316-3.25-122.188,28.958-153.645,84.057
					C1155.766,1522.861,1154.519,1523.491,1153.26,1523.427z"/>
				
					<ellipse transform="matrix(0.2923 -0.9563 0.9563 0.2923 -614.5818 2386.6509)" style="opacity:0.78;fill:#FFFFFF;" cx="1305.329" cy="1608.588" rx="156.231" ry="156.232"/>
				<g>
					
						<linearGradient id="SVGID_00000137106862100143023410000012418997600398564540_" gradientUnits="userSpaceOnUse" x1="185.9547" y1="688.9076" x2="-198.0932" y2="1333.6605" gradientTransform="matrix(0.9504 0.311 -0.311 0.9504 1499.6754 766.4576)">
						<stop  offset="0" style="stop-color:#FDF53F"/>
						<stop  offset="1" style="stop-color:#D93C65"/>
					</linearGradient>
					<path style="fill:url(#SVGID_00000137106862100143023410000012418997600398564540_);" d="M1284.063,1723.793l0.871-16.975
						c-17.66-1.617-34.948-6.692-47.1-12.772c-4.339-2.171-6.347-7.269-4.831-11.879l5.124-15.59
						c1.88-5.719,8.342-8.396,13.767-5.787c12.067,5.802,27.083,10.674,43.501,11.517c17.044,0.875,30.051-4.251,30.66-16.096
						c0.549-10.688-8.947-17.547-32.309-25.118c-33.325-10.979-56.835-26.958-55.308-56.714
						c1.379-26.868,22.077-46.369,56.446-50.107l0.871-16.976c0.281-5.463,4.936-9.663,10.399-9.383l9.973,0.512
						c5.463,0.28,9.663,4.936,9.383,10.398l-0.783,15.242c16.341,1.496,28.116,4.908,37.405,8.718
						c4.759,1.951,7.139,7.308,5.54,12.197l-4.716,14.419c-1.819,5.56-8.004,8.34-13.363,5.993
						c-8.54-3.741-20.677-7.802-36.682-8.623c-20.222-1.038-26.429,7.042-26.815,14.554c-0.475,9.244,11.332,16.222,37.205,25.661
						c36.977,13.194,51.775,29.594,50.336,57.616c-1.32,25.71-21.572,47.842-58.845,51.723l-0.975,18.997
						c-0.28,5.463-4.936,9.663-10.398,9.383l-9.975-0.512C1287.984,1733.912,1283.783,1729.256,1284.063,1723.793z"/>
				</g>
			</g>
			<g>
				
					<linearGradient id="SVGID_00000137821379230454329380000014419278845504662964_" gradientUnits="userSpaceOnUse" x1="949.7506" y1="815.9255" x2="1154.5724" y2="578.1862" gradientTransform="matrix(0.9987 0.0513 -0.0513 0.9987 336.5056 581.8078)">
					<stop  offset="0" style="stop-color:#FDF53F"/>
					<stop  offset="1" style="stop-color:#D93C65"/>
				</linearGradient>
				
					<circle style="fill:url(#SVGID_00000137821379230454329380000014419278845504662964_);" cx="1464.294" cy="1213.888" r="152.705"/>
				
					<linearGradient id="SVGID_00000170997051870751365490000018018517569690135468_" gradientUnits="userSpaceOnUse" x1="1270.3098" y1="404.788" x2="664.6468" y2="1319.7722" gradientTransform="matrix(0.9987 0.0513 -0.0513 0.9987 336.5056 581.8078)">
					<stop  offset="0" style="stop-color:#FDF53F"/>
					<stop  offset="1" style="stop-color:#D93C65"/>
				</linearGradient>
				
					<circle style="fill:url(#SVGID_00000170997051870751365490000018018517569690135468_);" cx="1464.294" cy="1213.888" r="147.627"/>
				<path style="fill:#FFFFFF;" d="M1345.67,1150.16c-0.568-0.029-1.14-0.187-1.669-0.49c-1.804-1.031-2.431-3.329-1.401-5.13
					c26.384-46.216,75.767-73.232,128.873-70.506c8.464,0.434,16.911,1.633,25.111,3.566c2.02,0.475,3.274,2.5,2.798,4.521
					c-0.477,2.021-2.487,3.304-4.524,2.799c-7.76-1.826-15.757-2.961-23.771-3.372c-50.254-2.58-96.985,22.987-121.955,66.72
					C1348.405,1149.543,1347.044,1150.23,1345.67,1150.16z"/>
				
					<ellipse transform="matrix(0.7071 -0.7071 0.7071 0.7071 -430.9624 1394.0962)" style="opacity:0.78;fill:#FFFFFF;" cx="1467.342" cy="1217.266" rx="124.948" ry="124.948"/>
				<g>
					
						<linearGradient id="SVGID_00000070087672104994300740000002063508662781159310_" gradientUnits="userSpaceOnUse" x1="196.454" y1="301.0239" x2="-110.6938" y2="816.6741" gradientTransform="matrix(0.9504 0.311 -0.311 0.9504 1499.6754 766.4576)">
						<stop  offset="0" style="stop-color:#FDF53F"/>
						<stop  offset="1" style="stop-color:#D93C65"/>
					</linearGradient>
					<path style="fill:url(#SVGID_00000070087672104994300740000002063508662781159310_);" d="M1450.334,1309.403l0.697-13.576
						c-14.123-1.293-27.95-5.352-37.669-10.215c-3.47-1.736-5.075-5.813-3.864-9.5l4.098-12.469
						c1.504-4.574,6.672-6.714,11.011-4.628c9.651,4.641,21.66,8.537,34.791,9.212c13.631,0.7,24.034-3.4,24.52-12.873
						c0.439-8.548-7.155-14.034-25.84-20.088c-26.651-8.781-45.454-21.561-44.233-45.357c1.103-21.487,17.656-37.084,45.144-40.073
						l0.697-13.578c0.224-4.369,3.948-7.729,8.316-7.505l7.976,0.409c4.369,0.224,7.729,3.948,7.505,8.317l-0.626,12.19
						c13.068,1.197,22.486,3.925,29.915,6.972c3.806,1.561,5.71,5.844,4.431,9.754l-3.772,11.532
						c-1.454,4.446-6.401,6.67-10.687,4.793c-6.83-2.991-16.537-6.239-29.337-6.896c-16.173-0.83-21.137,5.632-21.445,11.64
						c-0.38,7.393,9.063,12.974,29.755,20.522c29.573,10.552,41.408,23.668,40.257,46.08c-1.056,20.563-17.252,38.263-47.063,41.366
						l-0.78,15.193c-0.224,4.369-3.947,7.729-8.316,7.504l-7.977-0.409C1453.47,1317.495,1450.11,1313.771,1450.334,1309.403z"/>
				</g>
			</g>
		</g>
	</g>
</g>
</svg>
