<svg xmlns="http://www.w3.org/2000/svg" xmlns:xlink="http://www.w3.org/1999/xlink" width="300" zoomAndPan="magnify" viewBox="0 0 224.87999 60" height="80" preserveAspectRatio="xMidYMid meet" version="1.0"><defs><g/><clipPath id="716736023d"><rect x="0" width="190" y="0" height="45"/></clipPath><clipPath id="520e0ab25f"><path d="M 1 0.753906 L 8 0.753906 L 8 6 L 1 6 Z M 1 0.753906 " clip-rule="nonzero"/></clipPath><clipPath id="fc6ee07024"><path d="M 17 0.753906 L 23 0.753906 L 23 6 L 17 6 Z M 17 0.753906 " clip-rule="nonzero"/></clipPath><clipPath id="164f5bdc19"><path d="M 72 0.753906 L 78 0.753906 L 78 6 L 72 6 Z M 72 0.753906 " clip-rule="nonzero"/></clipPath><clipPath id="261bfe6743"><path d="M 80 0.753906 L 87 0.753906 L 87 6 L 80 6 Z M 80 0.753906 " clip-rule="nonzero"/></clipPath><clipPath id="b60ffab827"><path d="M 96 0.753906 L 103 0.753906 L 103 6 L 96 6 Z M 96 0.753906 " clip-rule="nonzero"/></clipPath><clipPath id="3ac10ceb40"><path d="M 152 0.753906 L 159 0.753906 L 159 6 L 152 6 Z M 152 0.753906 " clip-rule="nonzero"/></clipPath><clipPath id="22ffb1185f"><rect x="0" width="187" y="0" height="8"/></clipPath></defs><g transform="matrix(1, 0, 0, 1, 17, 1)"><g clip-path="url(#716736023d)"><g fill="#004aad" fill-opacity="1"><g transform="translate(0.782982, 34.545132)"><g><path d="M 3.453125 0 L 0.328125 -25.421875 L 5.171875 -25.421875 L 7.03125 -8.125 L 8.6875 -25.421875 L 13.546875 -25.421875 L 10.40625 0 Z M 3.453125 0 "/></g></g></g><g fill="#004aad" fill-opacity="1"><g transform="translate(16.89379, 34.545132)"><g><path d="M 1.125 0 L 1.125 -25.390625 L 11.296875 -25.390625 L 11.296875 -20.484375 L 6.296875 -20.484375 L 6.296875 -15.546875 L 11.078125 -15.546875 L 11.078125 -10.765625 L 6.296875 -10.765625 L 6.296875 -4.9375 L 11.625 -4.9375 L 11.625 0 Z M 1.125 0 "/></g></g></g><g fill="#004aad" fill-opacity="1"><g transform="translate(31.319628, 34.545132)"><g><path d="M 1.125 0 L 1.125 -25.390625 L 6.203125 -25.390625 L 6.203125 -4.3125 L 11.4375 -4.3125 L 11.4375 0 Z M 1.125 0 "/></g></g></g><g fill="#004aad" fill-opacity="1"><g transform="translate(45.302055, 34.545132)"><g><path d="M 3.3125 0 L 3.3125 -20.515625 L 0.296875 -20.515625 L 0.296875 -25.390625 L 11.40625 -25.390625 L 11.40625 -20.515625 L 8.390625 -20.515625 L 8.390625 0 Z M 3.3125 0 "/></g></g></g><g fill="#004aad" fill-opacity="1"><g transform="translate(59.254919, 34.545132)"><g><path d="M 7.1875 0.234375 C 5.132812 0.234375 3.578125 -0.390625 2.515625 -1.640625 C 1.453125 -2.890625 0.921875 -4.648438 0.921875 -6.921875 L 0.921875 -19.015625 C 0.921875 -21.203125 1.453125 -22.847656 2.515625 -23.953125 C 3.578125 -25.066406 5.132812 -25.625 7.1875 -25.625 C 9.238281 -25.625 10.796875 -25.066406 11.859375 -23.953125 C 12.921875 -22.847656 13.453125 -21.203125 13.453125 -19.015625 L 13.453125 -6.921875 C 13.453125 -4.628906 12.921875 -2.863281 11.859375 -1.625 C 10.796875 -0.382812 9.238281 0.234375 7.1875 0.234375 Z M 7.1875 -4.4375 C 7.632812 -4.4375 7.9375 -4.628906 8.09375 -5.015625 C 8.257812 -5.410156 8.34375 -5.96875 8.34375 -6.6875 L 8.34375 -19.09375 C 8.34375 -19.644531 8.265625 -20.09375 8.109375 -20.4375 C 7.960938 -20.78125 7.664062 -20.953125 7.21875 -20.953125 C 6.363281 -20.953125 5.9375 -20.3125 5.9375 -19.03125 L 5.9375 -6.65625 C 5.9375 -5.925781 6.023438 -5.375 6.203125 -5 C 6.378906 -4.625 6.707031 -4.4375 7.1875 -4.4375 Z M 7.1875 -4.4375 "/></g></g></g><g fill="#004aad" fill-opacity="1"><g transform="translate(75.868265, 34.545132)"><g/></g></g><g fill="#004aad" fill-opacity="1"><g transform="translate(85.032274, 34.545132)"><g><path d="M 1.125 0 L 1.125 -25.390625 L 11.296875 -25.390625 L 11.296875 -20.453125 L 6.234375 -20.453125 L 6.234375 -16.40625 L 11.03125 -16.40625 L 11.03125 -11.53125 L 6.234375 -11.53125 L 6.234375 0 Z M 1.125 0 "/></g></g></g><g fill="#004aad" fill-opacity="1"><g transform="translate(99.073822, 34.545132)"><g><path d="M 0.890625 0 L 0.890625 -25.390625 L 5.796875 -25.390625 L 5.796875 0 Z M 0.890625 0 "/></g></g></g><g fill="#004aad" fill-opacity="1"><g transform="translate(108.030903, 34.545132)"><g><path d="M 1.125 0 L 1.125 -25.390625 L 6.359375 -25.390625 L 8.6875 -13.25 L 8.6875 -25.390625 L 13.59375 -25.390625 L 13.59375 0 L 8.625 0 L 6.09375 -12.71875 L 6.09375 0 Z M 1.125 0 "/></g></g></g><g fill="#004aad" fill-opacity="1"><g transform="translate(124.998972, 34.545132)"><g><path d="M 0.4375 0 L 2.890625 -25.390625 L 11.5 -25.390625 L 13.921875 0 L 9.109375 0 L 8.75 -4.109375 L 5.671875 -4.109375 L 5.375 0 Z M 6.0625 -8.15625 L 8.359375 -8.15625 L 7.25 -21.078125 L 7 -21.078125 Z M 6.0625 -8.15625 "/></g></g></g><g fill="#004aad" fill-opacity="1"><g transform="translate(141.582749, 34.545132)"><g><path d="M 1.125 0 L 1.125 -25.390625 L 6.359375 -25.390625 L 8.6875 -13.25 L 8.6875 -25.390625 L 13.59375 -25.390625 L 13.59375 0 L 8.625 0 L 6.09375 -12.71875 L 6.09375 0 Z M 1.125 0 "/></g></g></g><g fill="#004aad" fill-opacity="1"><g transform="translate(158.550829, 34.545132)"><g><path d="M 7.03125 0.234375 C 5.175781 0.234375 3.691406 -0.34375 2.578125 -1.5 C 1.472656 -2.664062 0.921875 -4.265625 0.921875 -6.296875 L 0.921875 -18 C 0.921875 -20.519531 1.421875 -22.421875 2.421875 -23.703125 C 3.429688 -24.984375 5.007812 -25.625 7.15625 -25.625 C 9.03125 -25.625 10.535156 -25.113281 11.671875 -24.09375 C 12.816406 -23.070312 13.390625 -21.59375 13.390625 -19.65625 L 13.390625 -15.28125 L 8.34375 -15.28125 L 8.34375 -19.03125 C 8.34375 -19.757812 8.25 -20.257812 8.0625 -20.53125 C 7.882812 -20.8125 7.582031 -20.953125 7.15625 -20.953125 C 6.695312 -20.953125 6.382812 -20.796875 6.21875 -20.484375 C 6.050781 -20.171875 5.96875 -19.707031 5.96875 -19.09375 L 5.96875 -6.359375 C 5.96875 -5.679688 6.066406 -5.191406 6.265625 -4.890625 C 6.460938 -4.585938 6.757812 -4.4375 7.15625 -4.4375 C 7.945312 -4.4375 8.34375 -5.078125 8.34375 -6.359375 L 8.34375 -10.9375 L 13.453125 -10.9375 L 13.453125 -6.15625 C 13.453125 -1.894531 11.3125 0.234375 7.03125 0.234375 Z M 7.03125 0.234375 "/></g></g></g><g fill="#004aad" fill-opacity="1"><g transform="translate(174.809441, 34.545132)"><g><path d="M 1.125 0 L 1.125 -25.390625 L 11.296875 -25.390625 L 11.296875 -20.484375 L 6.296875 -20.484375 L 6.296875 -15.546875 L 11.078125 -15.546875 L 11.078125 -10.765625 L 6.296875 -10.765625 L 6.296875 -4.9375 L 11.625 -4.9375 L 11.625 0 Z M 1.125 0 "/></g></g></g></g></g><g transform="matrix(1, 0, 0, 1, 20, 41)"><g clip-path="url(#22ffb1185f)"><g clip-path="url(#520e0ab25f)"><g fill="#004aad" fill-opacity="1"><g transform="translate(1.196057, 5.589496)"><g><path d="M 3.0625 0.15625 C 2.488281 0.15625 1.988281 0.0546875 1.5625 -0.140625 C 1.132812 -0.335938 0.800781 -0.617188 0.5625 -0.984375 C 0.320312 -1.347656 0.203125 -1.769531 0.203125 -2.25 C 0.203125 -2.726562 0.320312 -3.144531 0.5625 -3.5 C 0.800781 -3.863281 1.132812 -4.144531 1.5625 -4.34375 C 1.988281 -4.550781 2.488281 -4.65625 3.0625 -4.65625 C 3.625 -4.65625 4.117188 -4.550781 4.546875 -4.34375 C 4.984375 -4.144531 5.320312 -3.863281 5.5625 -3.5 C 5.800781 -3.144531 5.921875 -2.726562 5.921875 -2.25 C 5.921875 -1.769531 5.800781 -1.347656 5.5625 -0.984375 C 5.320312 -0.617188 4.984375 -0.335938 4.546875 -0.140625 C 4.117188 0.0546875 3.625 0.15625 3.0625 0.15625 Z M 3.0625 -0.765625 C 3.394531 -0.765625 3.6875 -0.828125 3.9375 -0.953125 C 4.1875 -1.078125 4.378906 -1.25 4.515625 -1.46875 C 4.660156 -1.695312 4.734375 -1.957031 4.734375 -2.25 C 4.734375 -2.550781 4.660156 -2.8125 4.515625 -3.03125 C 4.378906 -3.25 4.1875 -3.421875 3.9375 -3.546875 C 3.6875 -3.671875 3.394531 -3.734375 3.0625 -3.734375 C 2.726562 -3.734375 2.429688 -3.671875 2.171875 -3.546875 C 1.921875 -3.421875 1.722656 -3.25 1.578125 -3.03125 C 1.441406 -2.8125 1.375 -2.550781 1.375 -2.25 C 1.375 -1.957031 1.441406 -1.695312 1.578125 -1.46875 C 1.722656 -1.25 1.921875 -1.078125 2.171875 -0.953125 C 2.429688 -0.828125 2.726562 -0.765625 3.0625 -0.765625 Z M 3.0625 -0.765625 "/></g></g></g></g><g fill="#004aad" fill-opacity="1"><g transform="translate(9.505915, 5.589496)"><g><path d="M 4.421875 0.125 C 4.160156 0.125 3.945312 0.0546875 3.78125 -0.078125 C 3.625 -0.210938 3.503906 -0.378906 3.421875 -0.578125 L 3.171875 -1.1875 C 3.117188 -1.332031 3.035156 -1.445312 2.921875 -1.53125 C 2.816406 -1.613281 2.691406 -1.65625 2.546875 -1.65625 L 1.515625 -1.65625 L 1.515625 0 L 0.328125 0 L 0.328125 -4.5 L 3.25 -4.5 C 3.800781 -4.5 4.234375 -4.375 4.546875 -4.125 C 4.859375 -3.875 5.015625 -3.535156 5.015625 -3.109375 C 5.015625 -2.785156 4.910156 -2.515625 4.703125 -2.296875 C 4.492188 -2.078125 4.203125 -1.929688 3.828125 -1.859375 C 3.929688 -1.816406 4.015625 -1.753906 4.078125 -1.671875 C 4.148438 -1.585938 4.210938 -1.488281 4.265625 -1.375 L 4.484375 -0.828125 C 4.515625 -0.765625 4.550781 -0.707031 4.59375 -0.65625 C 4.644531 -0.613281 4.710938 -0.59375 4.796875 -0.59375 C 4.859375 -0.59375 4.914062 -0.609375 4.96875 -0.640625 C 5.03125 -0.671875 5.082031 -0.71875 5.125 -0.78125 L 5.375 -0.25 C 5.269531 -0.144531 5.128906 -0.0546875 4.953125 0.015625 C 4.785156 0.0859375 4.609375 0.125 4.421875 0.125 Z M 1.515625 -2.40625 L 3.015625 -2.40625 C 3.265625 -2.40625 3.460938 -2.460938 3.609375 -2.578125 C 3.765625 -2.703125 3.84375 -2.859375 3.84375 -3.046875 C 3.84375 -3.242188 3.765625 -3.398438 3.609375 -3.515625 C 3.460938 -3.640625 3.265625 -3.703125 3.015625 -3.703125 L 1.515625 -3.703125 Z M 1.515625 -2.40625 "/></g></g></g><g clip-path="url(#fc6ee07024)"><g fill="#004aad" fill-opacity="1"><g transform="translate(17.097012, 5.589496)"><g><path d="M 2.78125 0.125 C 2.28125 0.125 1.832031 0.03125 1.4375 -0.15625 C 1.050781 -0.351562 0.75 -0.628906 0.53125 -0.984375 C 0.3125 -1.335938 0.203125 -1.75 0.203125 -2.21875 C 0.203125 -2.570312 0.269531 -2.894531 0.40625 -3.1875 C 0.539062 -3.488281 0.726562 -3.742188 0.96875 -3.953125 C 1.207031 -4.171875 1.492188 -4.335938 1.828125 -4.453125 C 2.160156 -4.578125 2.53125 -4.640625 2.9375 -4.640625 C 3.332031 -4.640625 3.691406 -4.578125 4.015625 -4.453125 C 4.347656 -4.335938 4.625 -4.171875 4.84375 -3.953125 C 5.070312 -3.734375 5.222656 -3.476562 5.296875 -3.1875 L 4.203125 -2.96875 C 4.148438 -3.125 4.0625 -3.257812 3.9375 -3.375 C 3.8125 -3.488281 3.660156 -3.578125 3.484375 -3.640625 C 3.316406 -3.703125 3.132812 -3.734375 2.9375 -3.734375 C 2.632812 -3.734375 2.363281 -3.671875 2.125 -3.546875 C 1.894531 -3.421875 1.710938 -3.242188 1.578125 -3.015625 C 1.441406 -2.785156 1.375 -2.523438 1.375 -2.234375 C 1.375 -1.941406 1.445312 -1.679688 1.59375 -1.453125 C 1.738281 -1.234375 1.941406 -1.054688 2.203125 -0.921875 C 2.460938 -0.796875 2.765625 -0.734375 3.109375 -0.734375 C 3.390625 -0.734375 3.644531 -0.78125 3.875 -0.875 C 4.113281 -0.976562 4.300781 -1.113281 4.4375 -1.28125 C 4.570312 -1.457031 4.644531 -1.65625 4.65625 -1.875 L 2.28125 -1.875 L 2.28125 -2.546875 L 5.796875 -2.546875 L 5.796875 0 L 4.90625 0 L 4.8125 -0.84375 C 4.625 -0.539062 4.347656 -0.300781 3.984375 -0.125 C 3.628906 0.0390625 3.226562 0.125 2.78125 0.125 Z M 2.78125 0.125 "/></g></g></g></g><g fill="#004aad" fill-opacity="1"><g transform="translate(25.324905, 5.589496)"><g><path d="M 0.03125 0 L 1.984375 -4.5 L 3.390625 -4.5 L 5.3125 0 L 4.09375 0 L 3.734375 -0.890625 L 1.609375 -0.890625 L 1.25 0 Z M 1.84375 -1.640625 L 3.484375 -1.640625 L 2.6875 -3.65625 L 2.671875 -3.65625 Z M 1.84375 -1.640625 "/></g></g></g><g fill="#004aad" fill-opacity="1"><g transform="translate(32.859257, 5.589496)"><g><path d="M 0.328125 0 L 0.328125 -4.5 L 1.734375 -4.5 L 4.0625 -1.25 L 4.0625 -4.5 L 5.1875 -4.5 L 5.1875 0 L 3.78125 0 L 1.453125 -3.25 L 1.453125 0 Z M 0.328125 0 "/></g></g></g><g fill="#004aad" fill-opacity="1"><g transform="translate(40.570145, 5.589496)"><g><path d="M 0.328125 0 L 0.328125 -4.5 L 1.5 -4.5 L 1.5 0 Z M 0.328125 0 "/></g></g></g><g fill="#004aad" fill-opacity="1"><g transform="translate(44.605267, 5.589496)"><g><path d="M 0.171875 0 L 0.171875 -0.984375 L 3.0625 -3.640625 L 0.234375 -3.640625 L 0.234375 -4.5 L 4.390625 -4.5 L 4.390625 -3.5 L 1.484375 -0.859375 L 4.453125 -0.859375 L 4.453125 0 Z M 0.171875 0 "/></g></g></g><g fill="#004aad" fill-opacity="1"><g transform="translate(51.414557, 5.589496)"><g><path d="M 0.328125 0 L 0.328125 -4.5 L 4.21875 -4.5 L 4.21875 -3.65625 L 1.46875 -3.65625 L 1.46875 -2.671875 L 3.96875 -2.671875 L 3.96875 -1.921875 L 1.46875 -1.921875 L 1.46875 -0.84375 L 4.28125 -0.84375 L 4.28125 0 Z M 0.328125 0 "/></g></g></g><g fill="#004aad" fill-opacity="1"><g transform="translate(58.02839, 5.589496)"><g><path d="M 0.796875 0.0625 C 0.617188 0.0625 0.46875 0.0078125 0.34375 -0.09375 C 0.226562 -0.195312 0.171875 -0.332031 0.171875 -0.5 C 0.171875 -0.664062 0.226562 -0.800781 0.34375 -0.90625 C 0.46875 -1.007812 0.617188 -1.0625 0.796875 -1.0625 C 0.972656 -1.0625 1.117188 -1.007812 1.234375 -0.90625 C 1.347656 -0.800781 1.40625 -0.664062 1.40625 -0.5 C 1.40625 -0.332031 1.347656 -0.195312 1.234375 -0.09375 C 1.117188 0.0078125 0.972656 0.0625 0.796875 0.0625 Z M 0.796875 0.0625 "/></g></g></g><g fill="#004aad" fill-opacity="1"><g transform="translate(61.817621, 5.589496)"><g/></g></g><g fill="#004aad" fill-opacity="1"><g transform="translate(65.537497, 5.589496)"><g><path d="M 0.328125 0 L 0.328125 -4.5 L 4.21875 -4.5 L 4.21875 -3.65625 L 1.46875 -3.65625 L 1.46875 -2.671875 L 3.96875 -2.671875 L 3.96875 -1.921875 L 1.46875 -1.921875 L 1.46875 -0.84375 L 4.28125 -0.84375 L 4.28125 0 Z M 0.328125 0 "/></g></g></g><g clip-path="url(#164f5bdc19)"><g fill="#004aad" fill-opacity="1"><g transform="translate(72.151331, 5.589496)"><g><path d="M 3.015625 0.140625 C 2.441406 0.140625 1.941406 0.046875 1.515625 -0.140625 C 1.097656 -0.335938 0.773438 -0.613281 0.546875 -0.96875 C 0.316406 -1.332031 0.203125 -1.757812 0.203125 -2.25 C 0.203125 -2.738281 0.3125 -3.160156 0.53125 -3.515625 C 0.75 -3.867188 1.054688 -4.144531 1.453125 -4.34375 C 1.847656 -4.539062 2.316406 -4.640625 2.859375 -4.640625 C 3.273438 -4.640625 3.648438 -4.570312 3.984375 -4.4375 C 4.316406 -4.300781 4.59375 -4.113281 4.8125 -3.875 C 5.039062 -3.632812 5.195312 -3.347656 5.28125 -3.015625 L 4.203125 -2.765625 C 4.128906 -3.054688 3.972656 -3.285156 3.734375 -3.453125 C 3.503906 -3.628906 3.21875 -3.71875 2.875 -3.71875 C 2.570312 -3.71875 2.304688 -3.65625 2.078125 -3.53125 C 1.859375 -3.414062 1.6875 -3.25 1.5625 -3.03125 C 1.4375 -2.8125 1.375 -2.550781 1.375 -2.25 C 1.375 -1.945312 1.441406 -1.6875 1.578125 -1.46875 C 1.710938 -1.25 1.90625 -1.078125 2.15625 -0.953125 C 2.40625 -0.835938 2.703125 -0.78125 3.046875 -0.78125 C 3.441406 -0.78125 3.78125 -0.878906 4.0625 -1.078125 C 4.34375 -1.285156 4.519531 -1.5625 4.59375 -1.90625 L 5.6875 -1.71875 C 5.613281 -1.34375 5.457031 -1.015625 5.21875 -0.734375 C 4.976562 -0.453125 4.671875 -0.234375 4.296875 -0.078125 C 3.921875 0.0664062 3.492188 0.140625 3.015625 0.140625 Z M 3.015625 0.140625 "/></g></g></g></g><g clip-path="url(#261bfe6743)"><g fill="#004aad" fill-opacity="1"><g transform="translate(80.145942, 5.589496)"><g><path d="M 3.0625 0.15625 C 2.488281 0.15625 1.988281 0.0546875 1.5625 -0.140625 C 1.132812 -0.335938 0.800781 -0.617188 0.5625 -0.984375 C 0.320312 -1.347656 0.203125 -1.769531 0.203125 -2.25 C 0.203125 -2.726562 0.320312 -3.144531 0.5625 -3.5 C 0.800781 -3.863281 1.132812 -4.144531 1.5625 -4.34375 C 1.988281 -4.550781 2.488281 -4.65625 3.0625 -4.65625 C 3.625 -4.65625 4.117188 -4.550781 4.546875 -4.34375 C 4.984375 -4.144531 5.320312 -3.863281 5.5625 -3.5 C 5.800781 -3.144531 5.921875 -2.726562 5.921875 -2.25 C 5.921875 -1.769531 5.800781 -1.347656 5.5625 -0.984375 C 5.320312 -0.617188 4.984375 -0.335938 4.546875 -0.140625 C 4.117188 0.0546875 3.625 0.15625 3.0625 0.15625 Z M 3.0625 -0.765625 C 3.394531 -0.765625 3.6875 -0.828125 3.9375 -0.953125 C 4.1875 -1.078125 4.378906 -1.25 4.515625 -1.46875 C 4.660156 -1.695312 4.734375 -1.957031 4.734375 -2.25 C 4.734375 -2.550781 4.660156 -2.8125 4.515625 -3.03125 C 4.378906 -3.25 4.1875 -3.421875 3.9375 -3.546875 C 3.6875 -3.671875 3.394531 -3.734375 3.0625 -3.734375 C 2.726562 -3.734375 2.429688 -3.671875 2.171875 -3.546875 C 1.921875 -3.421875 1.722656 -3.25 1.578125 -3.03125 C 1.441406 -2.8125 1.375 -2.550781 1.375 -2.25 C 1.375 -1.957031 1.441406 -1.695312 1.578125 -1.46875 C 1.722656 -1.25 1.921875 -1.078125 2.171875 -0.953125 C 2.429688 -0.828125 2.726562 -0.765625 3.0625 -0.765625 Z M 3.0625 -0.765625 "/></g></g></g></g><g fill="#004aad" fill-opacity="1"><g transform="translate(88.455801, 5.589496)"><g><path d="M 0.328125 0 L 0.328125 -4.5 L 1.734375 -4.5 L 4.0625 -1.25 L 4.0625 -4.5 L 5.1875 -4.5 L 5.1875 0 L 3.78125 0 L 1.453125 -3.25 L 1.453125 0 Z M 0.328125 0 "/></g></g></g><g clip-path="url(#b60ffab827)"><g fill="#004aad" fill-opacity="1"><g transform="translate(96.166689, 5.589496)"><g><path d="M 3.0625 0.15625 C 2.488281 0.15625 1.988281 0.0546875 1.5625 -0.140625 C 1.132812 -0.335938 0.800781 -0.617188 0.5625 -0.984375 C 0.320312 -1.347656 0.203125 -1.769531 0.203125 -2.25 C 0.203125 -2.726562 0.320312 -3.144531 0.5625 -3.5 C 0.800781 -3.863281 1.132812 -4.144531 1.5625 -4.34375 C 1.988281 -4.550781 2.488281 -4.65625 3.0625 -4.65625 C 3.625 -4.65625 4.117188 -4.550781 4.546875 -4.34375 C 4.984375 -4.144531 5.320312 -3.863281 5.5625 -3.5 C 5.800781 -3.144531 5.921875 -2.726562 5.921875 -2.25 C 5.921875 -1.769531 5.800781 -1.347656 5.5625 -0.984375 C 5.320312 -0.617188 4.984375 -0.335938 4.546875 -0.140625 C 4.117188 0.0546875 3.625 0.15625 3.0625 0.15625 Z M 3.0625 -0.765625 C 3.394531 -0.765625 3.6875 -0.828125 3.9375 -0.953125 C 4.1875 -1.078125 4.378906 -1.25 4.515625 -1.46875 C 4.660156 -1.695312 4.734375 -1.957031 4.734375 -2.25 C 4.734375 -2.550781 4.660156 -2.8125 4.515625 -3.03125 C 4.378906 -3.25 4.1875 -3.421875 3.9375 -3.546875 C 3.6875 -3.671875 3.394531 -3.734375 3.0625 -3.734375 C 2.726562 -3.734375 2.429688 -3.671875 2.171875 -3.546875 C 1.921875 -3.421875 1.722656 -3.25 1.578125 -3.03125 C 1.441406 -2.8125 1.375 -2.550781 1.375 -2.25 C 1.375 -1.957031 1.441406 -1.695312 1.578125 -1.46875 C 1.722656 -1.25 1.921875 -1.078125 2.171875 -0.953125 C 2.429688 -0.828125 2.726562 -0.765625 3.0625 -0.765625 Z M 3.0625 -0.765625 "/></g></g></g></g><g fill="#004aad" fill-opacity="1"><g transform="translate(104.476548, 5.589496)"><g><path d="M 0.328125 0 L 0.328125 -4.5 L 1.875 -4.5 L 3.421875 -1.171875 L 3.4375 -1.171875 L 4.984375 -4.5 L 6.53125 -4.5 L 6.53125 0 L 5.4375 0 L 5.4375 -3.171875 L 5.421875 -3.171875 L 3.953125 0 L 2.9375 0 L 1.4375 -3.171875 L 1.421875 -3.171875 L 1.421875 0 Z M 0.328125 0 "/></g></g></g><g fill="#004aad" fill-opacity="1"><g transform="translate(113.536691, 5.589496)"><g><path d="M 0.328125 0 L 0.328125 -4.5 L 1.5 -4.5 L 1.5 0 Z M 0.328125 0 "/></g></g></g><g fill="#004aad" fill-opacity="1"><g transform="translate(117.571813, 5.589496)"><g><path d="M 0.171875 0 L 0.171875 -0.984375 L 3.0625 -3.640625 L 0.234375 -3.640625 L 0.234375 -4.5 L 4.390625 -4.5 L 4.390625 -3.5 L 1.484375 -0.859375 L 4.453125 -0.859375 L 4.453125 0 Z M 0.171875 0 "/></g></g></g><g fill="#004aad" fill-opacity="1"><g transform="translate(124.381103, 5.589496)"><g><path d="M 0.328125 0 L 0.328125 -4.5 L 4.21875 -4.5 L 4.21875 -3.65625 L 1.46875 -3.65625 L 1.46875 -2.671875 L 3.96875 -2.671875 L 3.96875 -1.921875 L 1.46875 -1.921875 L 1.46875 -0.84375 L 4.28125 -0.84375 L 4.28125 0 Z M 0.328125 0 "/></g></g></g><g fill="#004aad" fill-opacity="1"><g transform="translate(130.994936, 5.589496)"><g><path d="M 0.796875 0.0625 C 0.617188 0.0625 0.46875 0.0078125 0.34375 -0.09375 C 0.226562 -0.195312 0.171875 -0.332031 0.171875 -0.5 C 0.171875 -0.664062 0.226562 -0.800781 0.34375 -0.90625 C 0.46875 -1.007812 0.617188 -1.0625 0.796875 -1.0625 C 0.972656 -1.0625 1.117188 -1.007812 1.234375 -0.90625 C 1.347656 -0.800781 1.40625 -0.664062 1.40625 -0.5 C 1.40625 -0.332031 1.347656 -0.195312 1.234375 -0.09375 C 1.117188 0.0078125 0.972656 0.0625 0.796875 0.0625 Z M 0.796875 0.0625 "/></g></g></g><g fill="#004aad" fill-opacity="1"><g transform="translate(134.784167, 5.589496)"><g/></g></g><g fill="#004aad" fill-opacity="1"><g transform="translate(138.504043, 5.589496)"><g><path d="M 0.328125 0 L 0.328125 -4.5 L 4.21875 -4.5 L 4.21875 -3.65625 L 1.46875 -3.65625 L 1.46875 -2.671875 L 3.96875 -2.671875 L 3.96875 -1.921875 L 1.46875 -1.921875 L 1.46875 -0.84375 L 4.28125 -0.84375 L 4.28125 0 Z M 0.328125 0 "/></g></g></g><g fill="#004aad" fill-opacity="1"><g transform="translate(145.117877, 5.589496)"><g><path d="M 1.96875 0 L 0.015625 -4.5 L 1.234375 -4.5 L 2.640625 -1.03125 L 2.65625 -1.03125 L 4.046875 -4.5 L 5.265625 -4.5 L 3.3125 0 Z M 1.96875 0 "/></g></g></g><g clip-path="url(#3ac10ceb40)"><g fill="#004aad" fill-opacity="1"><g transform="translate(152.595484, 5.589496)"><g><path d="M 3.0625 0.15625 C 2.488281 0.15625 1.988281 0.0546875 1.5625 -0.140625 C 1.132812 -0.335938 0.800781 -0.617188 0.5625 -0.984375 C 0.320312 -1.347656 0.203125 -1.769531 0.203125 -2.25 C 0.203125 -2.726562 0.320312 -3.144531 0.5625 -3.5 C 0.800781 -3.863281 1.132812 -4.144531 1.5625 -4.34375 C 1.988281 -4.550781 2.488281 -4.65625 3.0625 -4.65625 C 3.625 -4.65625 4.117188 -4.550781 4.546875 -4.34375 C 4.984375 -4.144531 5.320312 -3.863281 5.5625 -3.5 C 5.800781 -3.144531 5.921875 -2.726562 5.921875 -2.25 C 5.921875 -1.769531 5.800781 -1.347656 5.5625 -0.984375 C 5.320312 -0.617188 4.984375 -0.335938 4.546875 -0.140625 C 4.117188 0.0546875 3.625 0.15625 3.0625 0.15625 Z M 3.0625 -0.765625 C 3.394531 -0.765625 3.6875 -0.828125 3.9375 -0.953125 C 4.1875 -1.078125 4.378906 -1.25 4.515625 -1.46875 C 4.660156 -1.695312 4.734375 -1.957031 4.734375 -2.25 C 4.734375 -2.550781 4.660156 -2.8125 4.515625 -3.03125 C 4.378906 -3.25 4.1875 -3.421875 3.9375 -3.546875 C 3.6875 -3.671875 3.394531 -3.734375 3.0625 -3.734375 C 2.726562 -3.734375 2.429688 -3.671875 2.171875 -3.546875 C 1.921875 -3.421875 1.722656 -3.25 1.578125 -3.03125 C 1.441406 -2.8125 1.375 -2.550781 1.375 -2.25 C 1.375 -1.957031 1.441406 -1.695312 1.578125 -1.46875 C 1.722656 -1.25 1.921875 -1.078125 2.171875 -0.953125 C 2.429688 -0.828125 2.726562 -0.765625 3.0625 -0.765625 Z M 3.0625 -0.765625 "/></g></g></g></g><g fill="#004aad" fill-opacity="1"><g transform="translate(160.905343, 5.589496)"><g><path d="M 0.328125 0 L 0.328125 -4.5 L 1.515625 -4.5 L 1.515625 -0.9375 L 3.84375 -0.9375 L 3.84375 0 Z M 0.328125 0 "/></g></g></g><g fill="#004aad" fill-opacity="1"><g transform="translate(167.033711, 5.589496)"><g><path d="M 2.65625 0.140625 C 2.164062 0.140625 1.742188 0.0625 1.390625 -0.09375 C 1.035156 -0.25 0.757812 -0.476562 0.5625 -0.78125 C 0.375 -1.09375 0.28125 -1.460938 0.28125 -1.890625 L 0.28125 -4.5 L 1.453125 -4.5 L 1.453125 -1.9375 C 1.453125 -1.582031 1.5625 -1.300781 1.78125 -1.09375 C 2 -0.894531 2.289062 -0.796875 2.65625 -0.796875 C 3.03125 -0.796875 3.328125 -0.894531 3.546875 -1.09375 C 3.765625 -1.289062 3.875 -1.570312 3.875 -1.9375 L 3.875 -4.5 L 5.046875 -4.5 L 5.046875 -1.890625 C 5.046875 -1.460938 4.945312 -1.09375 4.75 -0.78125 C 4.5625 -0.476562 4.289062 -0.25 3.9375 -0.09375 C 3.582031 0.0625 3.15625 0.140625 2.65625 0.140625 Z M 2.65625 0.140625 "/></g></g></g><g fill="#004aad" fill-opacity="1"><g transform="translate(174.549143, 5.589496)"><g><path d="M 0.03125 0 L 1.984375 -4.5 L 3.390625 -4.5 L 5.3125 0 L 4.09375 0 L 3.734375 -0.890625 L 1.609375 -0.890625 L 1.25 0 Z M 1.84375 -1.640625 L 3.484375 -1.640625 L 2.6875 -3.65625 L 2.671875 -3.65625 Z M 1.84375 -1.640625 "/></g></g></g><g fill="#004aad" fill-opacity="1"><g transform="translate(182.083496, 5.589496)"><g><path d="M 0.796875 0.0625 C 0.617188 0.0625 0.46875 0.0078125 0.34375 -0.09375 C 0.226562 -0.195312 0.171875 -0.332031 0.171875 -0.5 C 0.171875 -0.664062 0.226562 -0.800781 0.34375 -0.90625 C 0.46875 -1.007812 0.617188 -1.0625 0.796875 -1.0625 C 0.972656 -1.0625 1.117188 -1.007812 1.234375 -0.90625 C 1.347656 -0.800781 1.40625 -0.664062 1.40625 -0.5 C 1.40625 -0.332031 1.347656 -0.195312 1.234375 -0.09375 C 1.117188 0.0078125 0.972656 0.0625 0.796875 0.0625 Z M 0.796875 0.0625 "/></g></g></g></g></g></svg>